thincompressed.ufo
<glyph name="exclam" format="1">
  <advance width="196"/>
  <unicode hex="0021"/>
  <outline>
    <contour>
      <point x="117" y="12"/>
      <point x="88" y="12"/>
      <point x="117" y="12" type="curve"/>
      <point x="117" y="21"/>
      <point x="111" y="26"/>
      <point x="102" y="26" type="curve"/>
      <point x="93" y="26"/>
      <point x="88" y="20"/>
      <point x="88" y="12" type="curve"/>
      <point x="117" y="12"/>
      <point x="88" y="12"/>
      <point x="117" y="12" type="curve"/>
      <point x="117" y="3"/>
      <point x="111" y="-2"/>
      <point x="102" y="-2" type="curve"/>
      <point x="93" y="-2"/>
      <point x="88" y="3"/>
      <point x="88" y="12" type="curve"/>
    </contour>
    <contour>
      <point x="113.6" y="229.293333333"/>
      <point x="89.4" y="229.293333333"/>
      <point x="113.6" y="229.293333333" type="curve"/>
      <point x="113.6" y="393.2598418"/>
      <point x="114" y="558"/>
      <point x="114" y="722" type="curve"/>
      <point x="89" y="722"/>
      <point x="114" y="722"/>
      <point x="89" y="722" type="curve"/>
      <point x="89" y="558"/>
      <point x="89.4" y="393.2598418"/>
      <point x="89.4" y="229.293333333" type="curve"/>
    </contour>
  </outline>
</glyph>
<glyph name="quotedbl" format="1">
  <advance width="318"/>
  <unicode hex="0022"/>
  <outline>
    <contour>
      <point x="114.3" y="658"/>
      <point x="90.1" y="658"/>
      <point x="114.3" y="658" type="curve"/>
      <point x="114.3" y="720.66604"/>
      <point x="114.3" y="783.33396"/>
      <point x="114.3" y="846" type="curve"/>
      <point x="90.1" y="846"/>
      <point x="114.3" y="846"/>
      <point x="90.1" y="846" type="curve"/>
      <point x="90.1" y="783.33396"/>
      <point x="90.1" y="720.66604"/>
      <point x="90.1" y="658" type="curve"/>
    </contour>
    <contour>
      <point x="244.3" y="658"/>
      <point x="221.2" y="658"/>
      <point x="244.3" y="658" type="curve"/>
      <point x="244.3" y="720.66604"/>
      <point x="244.3" y="783.33396"/>
      <point x="244.3" y="846" type="curve"/>
      <point x="221.2" y="846"/>
      <point x="244.3" y="846"/>
      <point x="221.2" y="846" type="curve"/>
      <point x="221.2" y="783.33396"/>
      <point x="221.2" y="720.66604"/>
      <point x="221.2" y="658" type="curve"/>
    </contour>
  </outline>
</glyph>
<glyph name="numbersign" format="1">
  <advance width="477"/>
  <unicode hex="0023"/>
  <outline>
    <contour>
      <point x="25" y="247"/>
      <point x="30" y="269"/>
      <point x="24.5" y="247.448888889" type="curve"/>
      <point x="137.732201" y="247.448888889"/>
      <point x="261" y="247"/>
      <point x="376" y="247" type="curve"/>
      <point x="381" y="269"/>
      <point x="376" y="247"/>
      <point x="381" y="269" type="curve"/>
      <point x="268" y="269"/>
      <point x="145" y="269"/>
      <point x="30" y="269" type="curve"/>
    </contour>
    <contour>
      <point x="76" y="492"/>
      <point x="81" y="513"/>
      <point x="75.6" y="491.904444444" type="curve"/>
      <point x="188.832201" y="491.904444444"/>
      <point x="312" y="492"/>
      <point x="427" y="492" type="curve"/>
      <point x="432" y="513"/>
      <point x="427" y="492"/>
      <point x="432" y="513" type="curve"/>
      <point x="319" y="513"/>
      <point x="196" y="513"/>
      <point x="81" y="513" type="curve"/>
    </contour>
    <contour>
      <point x="266.9" y="39"/>
      <point x="242.7" y="39"/>
      <point x="266.9" y="39" type="curve"/>
      <point x="266.9" y="39"/>
      <point x="418.8" y="722"/>
      <point x="418.8" y="722" type="curve"/>
      <point x="394.6" y="722"/>
      <point x="418.8" y="722"/>
      <point x="394.6" y="722" type="curve"/>
      <point x="394.6" y="722"/>
      <point x="242.7" y="39"/>
      <point x="242.7" y="39" type="curve"/>
    </contour>
    <contour>
      <point x="70.7" y="46"/>
      <point x="47.6" y="46"/>
      <point x="70.7" y="46" type="curve"/>
      <point x="70.7" y="46"/>
      <point x="220.0" y="722"/>
      <point x="220.0" y="722" type="curve"/>
      <point x="195.8" y="722"/>
      <point x="220.0" y="722"/>
      <point x="195.8" y="722" type="curve"/>
      <point x="195.8" y="722"/>
      <point x="47.6" y="46"/>
      <point x="47.6" y="46" type="curve"/>
    </contour>
  </outline>
</glyph>
<glyph name="percent" format="1">
  <advance width="579"/>
  <unicode hex="0025"/>
  <outline>
    <contour>
      <point x="344.4" y="176.411111111"/>
      <point x="321.3" y="176.411111111"/>
      <point x="344.4" y="176.411111111" type="curve"/>
      <point x="344.4" y="264.221467512"/>
      <point x="359.307198131" y="342.405920011"/>
      <point x="435.2" y="342.237777778" type="curve"/>
      <point x="510.147699576" y="342.237777778"/>
      <point x="526.2" y="263.24403343"/>
      <point x="526.2" y="177.368777778" type="curve"/>
      <point x="526.2" y="90.4218058774"/>
      <point x="511.740116813" y="9.58666666667"/>
      <point x="437" y="9.58666666667" type="curve"/>
      <point x="361.221239075" y="9.58666666667"/>
      <point x="344.4" y="89.6100449029"/>
      <point x="344.4" y="176.411111111" type="curve"/>
      <point x="321.3" y="176.411111111"/>
      <point x="344.4" y="176.411111111"/>
      <point x="321.3" y="176.411111111" type="curve"/>
      <point x="321.3" y="76.7798811821"/>
      <point x="348.029042864" y="-11.9733333333"/>
      <point x="435.9" y="-11.9733333333" type="curve"/>
      <point x="524.299933624" y="-11.9733333333"/>
      <point x="550.4" y="76.6895518036"/>
      <point x="550.4" y="178.446777778" type="curve"/>
      <point x="550.4" y="277.07489467"/>
      <point x="522.266967284" y="363.797777778"/>
      <point x="436.3" y="363.797777778" type="curve"/>
      <point x="346.706402513" y="364.866138168"/>
      <point x="321.3" y="278.059783148"/>
      <point x="321.3" y="176.411111111" type="curve"/>
    </contour>
    <contour>
      <point x="42" y="674.302222222"/>
      <point x="18.9" y="674.302222222"/>
      <point x="42" y="674.302222222" type="curve"/>
      <point x="42.0" y="762.026420462"/>
      <point x="56.9116495168" y="840.128888889"/>
      <point x="132.8" y="840.128888889" type="curve"/>
      <point x="207.770944337" y="841.151398521"/>
      <point x="223.8" y="761.23426541"/>
      <point x="223.8" y="675.259888889" type="curve"/>
      <point x="223.8" y="588.312916988"/>
      <point x="209.340116813" y="507.477777778"/>
      <point x="134.6" y="507.477777778" type="curve"/>
      <point x="58.8212390749" y="507.477777778"/>
      <point x="42.0" y="587.501156014"/>
      <point x="42" y="674.302222222" type="curve"/>
      <point x="18.9" y="674.302222222"/>
      <point x="42" y="674.302222222"/>
      <point x="18.9" y="674.302222222" type="curve"/>
      <point x="18.9" y="573.73107503"/>
      <point x="43.0190144339" y="485.917777778"/>
      <point x="133.5" y="485.917777778" type="curve"/>
      <point x="221.899933624" y="485.917777778"/>
      <point x="248.0" y="574.580662915"/>
      <point x="248.0" y="676.337888889" type="curve"/>
      <point x="248.0" y="775.066744988"/>
      <point x="219.868312851" y="861.884445877"/>
      <point x="133.9" y="861.688888889" type="curve"/>
      <point x="44.3087307867" y="861.688888889"/>
      <point x="18.9" y="775.826360446"/>
      <point x="18.9" y="674.302222222" type="curve"/>
    </contour>
    <contour>
      <point x="145.8" y="0"/>
      <point x="121.6" y="1.45213821436e-15"/>
      <point x="145.8" y="0" type="curve"/>
      <point x="245.199006" y="283.99716"/>
      <point x="344.600994" y="568.00284"/>
      <point x="444" y="852" type="curve"/>
      <point x="419.8" y="852"/>
      <point x="444" y="852"/>
      <point x="419.8" y="852" type="curve"/>
      <point x="320.400994" y="568.00284"/>
      <point x="220.999006" y="283.99716"/>
      <point x="121.6" y="1.45213821436e-15" type="curve"/>
    </contour>
  </outline>
</glyph>
<glyph name="quotesingle" format="1">
  <advance width="185"/>
  <unicode hex="0027"/>
  <outline>
    <contour>
      <point x="114.3" y="658"/>
      <point x="90.1" y="658"/>
      <point x="114.3" y="658" type="curve"/>
      <point x="114.3" y="720.66604"/>
      <point x="114.3" y="783.33396"/>
      <point x="114.3" y="846" type="curve"/>
      <point x="90.1" y="846"/>
      <point x="114.3" y="846"/>
      <point x="90.1" y="846" type="curve"/>
      <point x="90.1" y="783.33396"/>
      <point x="90.1" y="720.66604"/>
      <point x="90.1" y="658" type="curve"/>
    </contour>
  </outline>
</glyph>
<glyph name="comma" format="1">
  <advance width="280"/>
  <unicode hex="002C"/>
  <outline>
    <contour>
      <point x="110.8" y="-99"/>
      <point x="86.6" y="-99"/>
      <point x="110.8" y="-99" type="curve"/>
      <point x="136.668901577" y="-38.5821310329"/>
      <point x="163.131098423" y="21.5821310329"/>
      <point x="189" y="82" type="curve"/>
      <point x="158.2" y="82"/>
      <point x="189" y="82"/>
      <point x="158.2" y="82" type="curve"/>
      <point x="134.134864925" y="21.746063904"/>
      <point x="110.665135075" y="-38.746063904"/>
      <point x="86.6" y="-99" type="curve"/>
    </contour>
  </outline>
</glyph>
<glyph name="hyphen" format="1">
  <advance width="317"/>
  <unicode hex="002D"/>
  <outline>
    <contour>
      <point x="63.7" y="260.339777778"/>
      <point x="63.7" y="284.055777778"/>
      <point x="63.7" y="260.339777778" type="curve"/>
      <point x="131.599321" y="260.339777778"/>
      <point x="199.500679" y="260.339777778"/>
      <point x="267.4" y="260.339777778" type="curve"/>
      <point x="267.4" y="284.055777778"/>
      <point x="267.4" y="260.339777778"/>
      <point x="267.4" y="284.055777778" type="curve"/>
      <point x="199.500679" y="284.055777778"/>
      <point x="131.599321" y="284.055777778"/>
      <point x="63.7" y="284.055777778" type="curve"/>
    </contour>
  </outline>
</glyph>
<glyph name="period" format="1">
  <advance width="201"/>
  <unicode hex="002E"/>
  <outline>
    <contour>
      <point x="117" y="12"/>
      <point x="88" y="12"/>
      <point x="117" y="12" type="curve"/>
      <point x="117" y="21"/>
      <point x="111" y="26"/>
      <point x="102" y="26" type="curve"/>
      <point x="93" y="26"/>
      <point x="88" y="20"/>
      <point x="88" y="12" type="curve"/>
      <point x="117" y="12"/>
      <point x="88" y="12"/>
      <point x="117" y="12" type="curve"/>
      <point x="117" y="3"/>
      <point x="111" y="-2"/>
      <point x="102" y="-2" type="curve"/>
      <point x="93" y="-2"/>
      <point x="88" y="3"/>
      <point x="88" y="12" type="curve"/>
    </contour>
  </outline>
</glyph>
<glyph name="slash" format="1">
  <advance width="405"/>
  <unicode hex="002F"/>
  <outline>
    <contour>
      <point x="50.6" y="-67.0466666667"/>
      <point x="26.4" y="-67.0466666667"/>
      <point x="50.6" y="-67.0466666667" type="curve"/>
      <point x="149.999006" y="236.274744533"/>
      <point x="249.400994" y="539.605255467"/>
      <point x="348.8" y="842.926666667" type="curve"/>
      <point x="324.6" y="842.926666667"/>
      <point x="348.8" y="842.926666667"/>
      <point x="324.6" y="842.926666667" type="curve"/>
      <point x="225.200994" y="539.605255467"/>
      <point x="125.799006" y="236.274744533"/>
      <point x="26.4" y="-67.0466666667" type="curve"/>
    </contour>
  </outline>
</glyph>
<glyph name="one" format="1">
  <advance width="311"/>
  <unicode hex="0031"/>
  <outline>
    <contour>
      <point x="169.4" y="0"/>
      <point x="169.4" y="21.56"/>
      <point x="169.4" y="0" type="curve"/>
      <point x="213.432893" y="0"/>
      <point x="257.467107" y="0"/>
      <point x="301.5" y="0" type="curve"/>
      <point x="301.5" y="21.56"/>
      <point x="301.5" y="0"/>
      <point x="301.5" y="21.56" type="curve"/>
      <point x="169.4" y="21.56"/>
      <point x="301.5" y="21.56"/>
      <point x="169.4" y="21.56" type="curve"/>
    </contour>
    <contour>
      <point x="169.4" y="21.56"/>
      <point x="169.4" y="0"/>
      <point x="169.4" y="21.56" type="curve"/>
      <point x="37.3" y="21.56"/>
      <point x="169.4" y="21.56"/>
      <point x="37.3" y="21.56" type="curve"/>
      <point x="37.3" y="0"/>
      <point x="37.3" y="21.56"/>
      <point x="37.3" y="0" type="curve"/>
      <point x="81.332893" y="-5.3922960545e-15"/>
      <point x="125.367107" y="5.3922960545e-15"/>
      <point x="169.4" y="0" type="curve"/>
    </contour>
    <contour>
      <point x="32" y="541"/>
      <point x="15" y="556"/>
      <point x="32" y="541" type="curve"/>
      <point x="178" y="714"/>
      <point x="32" y="541"/>
      <point x="178" y="714" type="curve"/>
      <point x="156" y="722"/>
      <point x="178" y="714"/>
      <point x="156" y="722" type="curve"/>
      <point x="15" y="556"/>
      <point x="156" y="722"/>
      <point x="15" y="556" type="curve"/>
    </contour>
    <contour>
      <point x="180.1" y="0"/>
      <point x="155.9" y="1.45213821436e-15"/>
      <point x="180.1" y="0" type="curve"/>
      <point x="180.1" y="240.66426"/>
      <point x="180.1" y="481.33574"/>
      <point x="180.1" y="722" type="curve"/>
      <point x="156" y="722"/>
      <point x="180" y="722"/>
      <point x="156" y="722" type="curve"/>
      <point x="156" y="481"/>
      <point x="155.9" y="240.66426"/>
      <point x="155.9" y="1.45213821436e-15" type="curve"/>
    </contour>
  </outline>
</glyph>
<glyph name="four" format="1">
  <advance width="477"/>
  <unicode hex="0034"/>
  <outline>
    <contour>
      <point x="262.5" y="21.56"/>
      <point x="262.5" y="0"/>
      <point x="262.5" y="21.56" type="curve"/>
      <point x="130.4" y="21.56"/>
      <point x="262.5" y="21.56"/>
      <point x="130.4" y="21.56" type="curve"/>
      <point x="130.4" y="0"/>
      <point x="130.4" y="21.56"/>
      <point x="130.4" y="0" type="curve"/>
      <point x="174.432893" y="-5.3922960545e-15"/>
      <point x="218.467107" y="5.3922960545e-15"/>
      <point x="262.5" y="0" type="curve"/>
    </contour>
    <contour>
      <point x="262.5" y="0"/>
      <point x="262.5" y="21.56"/>
      <point x="262.5" y="0" type="curve"/>
      <point x="306.532893" y="0"/>
      <point x="350.567107" y="0"/>
      <point x="394.6" y="0" type="curve"/>
      <point x="394.6" y="21.56"/>
      <point x="394.6" y="0"/>
      <point x="394.6" y="21.56" type="curve"/>
      <point x="262.5" y="21.56"/>
      <point x="394.6" y="21.56"/>
      <point x="262.5" y="21.56" type="curve"/>
    </contour>
    <contour>
      <point x="38" y="265"/>
      <point x="24" y="287"/>
      <point x="38" y="265" type="curve"/>
      <point x="275" y="722"/>
      <point x="38" y="265"/>
      <point x="275" y="722" type="curve"/>
      <point x="251" y="722"/>
      <point x="275" y="722"/>
      <point x="251" y="722" type="curve"/>
      <point x="25" y="288"/>
      <point x="251" y="722"/>
      <point x="24" y="287" type="curve"/>
    </contour>
    <contour>
      <point x="450" y="287" type="curve"/>
      <point x="35" y="287"/>
      <point x="413" y="287"/>
      <point x="24" y="287" type="curve"/>
      <point x="38" y="265"/>
      <point x="24" y="287"/>
      <point x="38" y="265" type="curve"/>
      <point x="409" y="265"/>
      <point x="54" y="265"/>
      <point x="450" y="265" type="curve"/>
      <point x="450" y="274"/>
      <point x="450" y="279"/>
    </contour>
    <contour>
      <point x="251" y="722"/>
      <point x="275" y="722"/>
      <point x="251" y="722" type="curve"/>
      <point x="251" y="722"/>
      <point x="251.1" y="0.802222222222"/>
      <point x="251.1" y="0.802222222222" type="curve"/>
      <point x="275.3" y="0.802222222222"/>
      <point x="251.1" y="0.802222222222"/>
      <point x="275.3" y="0.802222222222" type="curve"/>
      <point x="275.3" y="0.802222222222"/>
      <point x="275" y="722"/>
      <point x="275" y="722" type="curve"/>
    </contour>
  </outline>
</glyph>
<glyph name="nine" format="1">
  <advance width="432"/>
  <unicode hex="0039"/>
  <outline>
    <contour>
      <point x="356" y="489"/>
      <point x="369" y="481"/>
      <point x="356" y="489" type="curve"/>
      <point x="327" y="405"/>
      <point x="296.50283106" y="335.900111111"/>
      <point x="210.4" y="335.900111111" type="curve"/>
      <point x="118.118473279" y="335.900111111"/>
      <point x="86.3" y="416.415981833"/>
      <point x="86.3" y="519.686777778" type="curve"/>
      <point x="86.3" y="619.970579789"/>
      <point x="118" y="703"/>
      <point x="206" y="703" type="curve"/>
      <point x="314" y="703"/>
      <point x="348.6" y="601.793770646"/>
      <point x="348.6" y="479.695444444" type="curve"/>
      <point x="348.6" y="253.748305995"/>
      <point x="263.857775096" y="98.671622946"/>
      <point x="58.7" y="7.51088888889" type="curve"/>
      <point x="63.1" y="-11.8931111111"/>
      <point x="58.7" y="7.51088888889"/>
      <point x="63.1" y="-11.8931111111" type="curve"/>
      <point x="281.371988731" y="78.7964650388"/>
      <point x="371.7" y="242.349870995"/>
      <point x="371.7" y="480.773444444" type="curve"/>
      <point x="371.7" y="619.215111787"/>
      <point x="329.940882926" y="727.120333333"/>
      <point x="207.4" y="727.120333333" type="curve"/>
      <point x="101.504736602" y="727.120333333"/>
      <point x="62.1" y="636.333385411"/>
      <point x="62.1" y="518.608777778" type="curve"/>
      <point x="62.1" y="401.504731913"/>
      <point x="103.183982276" y="313.262111111"/>
      <point x="208.2" y="313.262111111" type="curve"/>
      <point x="302.926061129" y="313.262111111"/>
      <point x="340.66056288" y="385.164867538"/>
      <point x="369.1" y="481.33" type="curve"/>
    </contour>
  </outline>
</glyph>
<glyph name="semicolon" format="1">
  <advance width="181"/>
  <unicode hex="003B"/>
  <outline>
    <contour>
      <point x="31" y="-99"/>
      <point x="7" y="-99"/>
      <point x="31" y="-99" type="curve"/>
      <point x="57" y="-39"/>
      <point x="83" y="22"/>
      <point x="109" y="82" type="curve"/>
      <point x="78" y="82"/>
      <point x="109" y="82"/>
      <point x="78" y="82" type="curve"/>
      <point x="54" y="22"/>
      <point x="31" y="-39"/>
      <point x="7" y="-99" type="curve"/>
    </contour>
    <contour>
      <point x="117" y="428"/>
      <point x="88" y="428"/>
      <point x="117" y="428" type="curve"/>
      <point x="117" y="437"/>
      <point x="111" y="442"/>
      <point x="102" y="442" type="curve"/>
      <point x="93" y="442"/>
      <point x="88" y="436"/>
      <point x="88" y="428" type="curve"/>
      <point x="117" y="428"/>
      <point x="88" y="428"/>
      <point x="117" y="428" type="curve"/>
      <point x="117" y="419"/>
      <point x="111" y="414"/>
      <point x="102" y="414" type="curve"/>
      <point x="93" y="414"/>
      <point x="88" y="419"/>
      <point x="88" y="428" type="curve"/>
    </contour>
  </outline>
</glyph>
<glyph name="less" format="1">
  <advance width="497"/>
  <unicode hex="003C"/>
  <outline>
    <contour>
      <point x="452.9" y="581.858"/>
      <point x="452.9" y="558.142"/>
      <point x="452.9" y="581.858" type="curve"/>
      <point x="310.801421" y="491.8589"/>
      <point x="168.698579" y="401.8571"/>
      <point x="26.6" y="311.858" type="curve"/>
      <point x="26.6" y="288.142"/>
      <point x="26.6" y="311.858"/>
      <point x="26.6" y="288.142" type="curve"/>
      <point x="168.698579" y="378.1411"/>
      <point x="310.801421" y="468.1429"/>
      <point x="452.9" y="558.142" type="curve"/>
    </contour>
    <contour>
      <point x="459.9" y="47.858"/>
      <point x="459.9" y="24.142"/>
      <point x="459.9" y="47.858" type="curve"/>
      <point x="315.468111" y="135.85712"/>
      <point x="171.031889" y="223.85888"/>
      <point x="26.6" y="311.858" type="curve"/>
      <point x="26.6" y="288.142"/>
      <point x="26.6" y="311.858"/>
      <point x="26.6" y="288.142" type="curve"/>
      <point x="171.031889" y="200.14288"/>
      <point x="315.468111" y="112.14112"/>
      <point x="459.9" y="24.142" type="curve"/>
    </contour>
  </outline>
</glyph>
<glyph name="equal" format="1">
  <advance width="491"/>
  <unicode hex="003D"/>
  <outline>
    <contour>
      <point x="26.6" y="206.181"/>
      <point x="26.6" y="228.819"/>
      <point x="26.6" y="206.181" type="curve"/>
      <point x="173.365199" y="206.181"/>
      <point x="320.134801" y="206.181"/>
      <point x="466.9" y="206.181" type="curve"/>
      <point x="466.9" y="228.819"/>
      <point x="466.9" y="206.181"/>
      <point x="466.9" y="228.819" type="curve"/>
      <point x="320.134801" y="228.819"/>
      <point x="173.365199" y="228.819"/>
      <point x="26.6" y="228.819" type="curve"/>
    </contour>
    <contour>
      <point x="26.6" y="428.181"/>
      <point x="26.6" y="450.819"/>
      <point x="26.6" y="428.181" type="curve"/>
      <point x="173.365199" y="428.181"/>
      <point x="320.134801" y="428.181"/>
      <point x="466.9" y="428.181" type="curve"/>
      <point x="466.9" y="450.819"/>
      <point x="466.9" y="428.181"/>
      <point x="466.9" y="450.819" type="curve"/>
      <point x="320.134801" y="450.819"/>
      <point x="173.365199" y="450.819"/>
      <point x="26.6" y="450.819" type="curve"/>
    </contour>
  </outline>
</glyph>
<glyph name="question" format="1">
  <advance width="283"/>
  <unicode hex="003F"/>
  <outline>
    <contour>
      <point x="81" y="334"/>
      <point x="105" y="334"/>
      <point x="81" y="334" type="curve"/>
      <point x="81" y="297"/>
      <point x="81" y="258"/>
      <point x="81" y="221" type="curve"/>
      <point x="105" y="221"/>
      <point x="81" y="221"/>
      <point x="105" y="221" type="curve"/>
      <point x="105" y="258"/>
      <point x="105" y="297"/>
      <point x="105" y="334" type="curve"/>
    </contour>
    <contour>
      <point x="47" y="672"/>
      <point x="39" y="694"/>
      <point x="47" y="672" type="curve"/>
      <point x="64" y="682"/>
      <point x="82" y="687"/>
      <point x="99" y="687" type="curve"/>
      <point x="182" y="687"/>
      <point x="217" y="612"/>
      <point x="217" y="519" type="curve"/>
      <point x="217" y="418"/>
      <point x="178" y="334"/>
      <point x="86" y="334" type="curve"/>
      <point x="86" y="311"/>
      <point x="86" y="334"/>
      <point x="86" y="311" type="curve"/>
      <point x="191" y="311"/>
      <point x="240" y="404"/>
      <point x="240" y="519" type="curve"/>
      <point x="240" y="624"/>
      <point x="195" y="710"/>
      <point x="101" y="710" type="curve"/>
      <point x="77" y="710"/>
      <point x="60" y="704"/>
      <point x="39" y="694" type="curve"/>
    </contour>
    <contour>
      <point x="108" y="11"/>
      <point x="79" y="11"/>
      <point x="108" y="11" type="curve"/>
      <point x="108" y="20"/>
      <point x="102" y="25"/>
      <point x="93" y="25" type="curve"/>
      <point x="85" y="25"/>
      <point x="79" y="19"/>
      <point x="79" y="11" type="curve"/>
      <point x="108" y="11"/>
      <point x="79" y="11"/>
      <point x="108" y="11" type="curve"/>
      <point x="108" y="2"/>
      <point x="102" y="-2"/>
      <point x="93" y="-2" type="curve"/>
      <point x="85" y="-2"/>
      <point x="79" y="3"/>
      <point x="79" y="11" type="curve"/>
    </contour>
  </outline>
</glyph>
<glyph name="A" format="1">
  <advance width="689"/>
  <unicode hex="0041"/>
  <outline>
    <contour>
      <point x="153" y="22"/>
      <point x="153" y="0"/>
      <point x="153" y="22" type="curve"/>
      <point x="21" y="22"/>
      <point x="153" y="22"/>
      <point x="21" y="22" type="curve"/>
      <point x="21" y="0"/>
      <point x="21" y="22"/>
      <point x="21" y="0" type="curve"/>
      <point x="65" y="0"/>
      <point x="109" y="0"/>
      <point x="153" y="0" type="curve"/>
    </contour>
    <contour>
      <point x="153" y="0"/>
      <point x="153" y="22"/>
      <point x="153" y="0" type="curve"/>
      <point x="199" y="0"/>
      <point x="153" y="0"/>
      <point x="290" y="0" type="curve"/>
      <point x="290" y="22"/>
      <point x="290" y="0"/>
      <point x="290" y="22" type="curve"/>
      <point x="153" y="22"/>
      <point x="290" y="22"/>
      <point x="153" y="22" type="curve"/>
    </contour>
    <contour>
      <point x="536" y="0"/>
      <point x="536" y="22"/>
      <point x="536" y="0" type="curve"/>
      <point x="580" y="0"/>
      <point x="624" y="0"/>
      <point x="668" y="0" type="curve"/>
      <point x="668" y="22"/>
      <point x="668" y="0"/>
      <point x="668" y="22" type="curve"/>
      <point x="536" y="22"/>
      <point x="668" y="22"/>
      <point x="536" y="22" type="curve"/>
    </contour>
    <contour>
      <point x="536" y="22"/>
      <point x="536" y="0"/>
      <point x="536" y="22" type="curve"/>
      <point x="398" y="22"/>
      <point x="536" y="22"/>
      <point x="398" y="22" type="curve"/>
      <point x="398" y="0"/>
      <point x="398" y="22"/>
      <point x="398" y="0" type="curve"/>
      <point x="444" y="0"/>
      <point x="490" y="0"/>
      <point x="536" y="0" type="curve"/>
    </contour>
    <contour>
      <point x="471" y="277"/>
      <point x="479" y="254"/>
      <point x="471" y="277" type="curve"/>
      <point x="390" y="277"/>
      <point x="310" y="277"/>
      <point x="229" y="277" type="curve"/>
      <point x="219" y="254"/>
      <point x="229" y="277"/>
      <point x="219" y="254" type="curve"/>
      <point x="306" y="254"/>
      <point x="392" y="254"/>
      <point x="479" y="254" type="curve"/>
    </contour>
    <contour>
      <point x="556" y="0"/>
      <point x="531" y="0"/>
      <point x="556" y="0" type="curve"/>
      <point x="493" y="241"/>
      <point x="430" y="481"/>
      <point x="367" y="722" type="curve"/>
      <point x="345" y="722"/>
      <point x="367" y="722"/>
      <point x="345" y="722" type="curve"/>
      <point x="407" y="481"/>
      <point x="469" y="241"/>
      <point x="531" y="0" type="curve"/>
    </contour>
    <contour>
      <point x="158" y="0"/>
      <point x="131" y="0"/>
      <point x="158" y="0" type="curve"/>
      <point x="227" y="241"/>
      <point x="296" y="481"/>
      <point x="365" y="722" type="curve"/>
      <point x="343" y="722"/>
      <point x="365" y="722"/>
      <point x="343" y="722" type="curve"/>
      <point x="273" y="481"/>
      <point x="202" y="241"/>
      <point x="131" y="0" type="curve"/>
    </contour>
  </outline>
</glyph>
<glyph name="F" format="1">
  <advance width="475"/>
  <unicode hex="0046"/>
  <outline>
    <contour>
      <point x="157" y="0"/>
      <point x="157" y="22"/>
      <point x="157" y="0" type="curve"/>
      <point x="201" y="0"/>
      <point x="157" y="0"/>
      <point x="289" y="0" type="curve"/>
      <point x="289" y="22"/>
      <point x="289" y="0"/>
      <point x="289" y="22" type="curve"/>
      <point x="157" y="22"/>
      <point x="289" y="22"/>
      <point x="157" y="22" type="curve"/>
    </contour>
    <contour>
      <point x="157" y="722"/>
      <point x="157" y="700"/>
      <point x="157" y="722" type="curve"/>
      <point x="113" y="722"/>
      <point x="69" y="722"/>
      <point x="25" y="722" type="curve"/>
      <point x="25" y="700"/>
      <point x="25" y="722"/>
      <point x="25" y="700" type="curve"/>
      <point x="157" y="700"/>
      <point x="25" y="700"/>
      <point x="157" y="700" type="curve"/>
    </contour>
    <contour>
      <point x="157" y="22"/>
      <point x="157" y="0"/>
      <point x="157" y="22" type="curve"/>
      <point x="25" y="22"/>
      <point x="157" y="22"/>
      <point x="25" y="22" type="curve"/>
      <point x="25" y="0"/>
      <point x="25" y="22"/>
      <point x="25" y="0" type="curve"/>
      <point x="69" y="0"/>
      <point x="113" y="0"/>
      <point x="157" y="0" type="curve"/>
    </contour>
    <contour>
      <point x="414" y="711"/>
      <point x="436" y="711"/>
      <point x="414" y="711" type="curve"/>
      <point x="414" y="591"/>
      <point x="414" y="711"/>
      <point x="414" y="591" type="curve"/>
      <point x="436" y="591"/>
      <point x="414" y="591"/>
      <point x="436" y="591" type="curve"/>
      <point x="436" y="711"/>
      <point x="436" y="591"/>
      <point x="436" y="711" type="curve"/>
    </contour>
    <contour>
      <point x="160" y="363"/>
      <point x="160" y="385"/>
      <point x="160" y="363" type="curve"/>
      <point x="235" y="363"/>
      <point x="310" y="363"/>
      <point x="385" y="363" type="curve"/>
      <point x="385" y="385"/>
      <point x="385" y="363"/>
      <point x="385" y="385" type="curve"/>
      <point x="310" y="385"/>
      <point x="235" y="385"/>
      <point x="160" y="385" type="curve"/>
    </contour>
    <contour>
      <point x="169" y="0"/>
      <point x="145" y="0"/>
      <point x="169" y="0" type="curve"/>
      <point x="169" y="0"/>
      <point x="169" y="722"/>
      <point x="169" y="722" type="curve"/>
      <point x="145" y="722"/>
      <point x="169" y="722"/>
      <point x="145" y="722" type="curve"/>
      <point x="145" y="481"/>
      <point x="145" y="241"/>
      <point x="145" y="0" type="curve"/>
    </contour>
    <contour>
      <point x="149" y="700"/>
      <point x="149" y="722"/>
      <point x="149" y="700" type="curve"/>
      <point x="245" y="700"/>
      <point x="340" y="700"/>
      <point x="436" y="700" type="curve"/>
      <point x="436" y="722"/>
      <point x="436" y="700"/>
      <point x="436" y="722" type="curve"/>
      <point x="340" y="722"/>
      <point x="245" y="722"/>
      <point x="149" y="722" type="curve"/>
    </contour>
  </outline>
</glyph>
<glyph name="G" format="1">
  <advance width="580"/>
  <unicode hex="0047"/>
  <outline>
    <contour>
      <point x="476.02" y="642.057444444"/>
      <point x="497.8" y="642.057444444"/>
      <point x="476.02" y="642.057444444" type="curve"/>
      <point x="476.02" y="522.057444444"/>
      <point x="476.02" y="642.057444444"/>
      <point x="476.02" y="522.057444444" type="curve"/>
      <point x="497.8" y="522.057444444"/>
      <point x="476.02" y="522.057444444"/>
      <point x="497.8" y="522.057444444" type="curve"/>
      <point x="497.8" y="642.057444444"/>
      <point x="497.8" y="522.057444444"/>
      <point x="497.8" y="642.057444444" type="curve"/>
    </contour>
    <contour>
      <point x="501.9" y="318.897777778"/>
      <point x="501.9" y="297.337777778"/>
      <point x="501.9" y="318.897777778" type="curve"/>
      <point x="450.56718" y="318.897777778"/>
      <point x="399.23282" y="318.897777778"/>
      <point x="347.9" y="318.897777778" type="curve"/>
      <point x="347.9" y="297.337777778"/>
      <point x="347.9" y="318.897777778"/>
      <point x="347.9" y="297.337777778" type="curve"/>
      <point x="399.23282" y="297.337777778"/>
      <point x="450.56718" y="297.337777778"/>
      <point x="501.9" y="297.337777778" type="curve"/>
    </contour>
    <contour>
      <point x="509.7" y="77.0294444444"/>
      <point x="487.7" y="77.0294444444"/>
      <point x="509.7" y="77.0294444444" type="curve"/>
      <point x="509.7" y="157.651415994"/>
      <point x="509.7" y="238.275806228"/>
      <point x="509.7" y="318.897777778" type="curve"/>
      <point x="487.7" y="318.897777778"/>
      <point x="509.7" y="318.897777778"/>
      <point x="487.7" y="318.897777778" type="curve"/>
      <point x="487.7" y="238.275806228"/>
      <point x="487.7" y="157.651415994"/>
      <point x="487.7" y="77.0294444444" type="curve"/>
    </contour>
    <contour>
      <point x="497.8" y="642.057444444"/>
      <point x="485.7" y="623.731444444"/>
      <point x="497.8" y="642.057444444" type="curve"/>
      <point x="439.956207866" y="696.360285156"/>
      <point x="381.364385145" y="727"/>
      <point x="302.4" y="727" type="curve"/>
      <point x="122.527438502" y="727"/>
      <point x="68.4" y="570.452071199"/>
      <point x="68.4" y="364.910888889" type="curve"/>
      <point x="68.4" y="154.160184248"/>
      <point x="125.769078737" y="-5"/>
      <point x="310.1" y="-5" type="curve"/>
      <point x="393.844649112" y="-5"/>
      <point x="444.990430612" y="23.7858373802"/>
      <point x="509.7" y="77.0294444444" type="curve"/>
      <point x="497.6" y="93.1994444444"/>
      <point x="509.7" y="77.0294444444"/>
      <point x="497.6" y="93.1994444444" type="curve"/>
      <point x="438.109142435" y="44.3420531868"/>
      <point x="387" y="19"/>
      <point x="310" y="19" type="curve"/>
      <point x="139" y="19"/>
      <point x="92.6" y="171.371084085"/>
      <point x="92.6" y="367.066888889" type="curve"/>
      <point x="92.6" y="554.386938005"/>
      <point x="139" y="703"/>
      <point x="302" y="703" type="curve"/>
      <point x="376" y="703"/>
      <point x="431.339024759" y="673.908813713"/>
      <point x="485.7" y="623.731444444" type="curve"/>
    </contour>
  </outline>
</glyph>
<glyph name="H" format="1">
  <advance width="680"/>
  <unicode hex="0048"/>
  <outline>
    <contour>
      <point x="517" y="700"/>
      <point x="517" y="722"/>
      <point x="517" y="700" type="curve"/>
      <point x="649" y="700"/>
      <point x="517" y="700"/>
      <point x="649" y="700" type="curve"/>
      <point x="649" y="722"/>
      <point x="649" y="700"/>
      <point x="649" y="722" type="curve"/>
      <point x="605" y="722"/>
      <point x="561" y="722"/>
      <point x="517" y="722" type="curve"/>
    </contour>
    <contour>
      <point x="517" y="0"/>
      <point x="517" y="22"/>
      <point x="517" y="0" type="curve"/>
      <point x="561" y="0"/>
      <point x="605" y="0"/>
      <point x="649" y="0" type="curve"/>
      <point x="649" y="22"/>
      <point x="649" y="0"/>
      <point x="649" y="22" type="curve"/>
      <point x="517" y="22"/>
      <point x="649" y="22"/>
      <point x="517" y="22" type="curve"/>
    </contour>
    <contour>
      <point x="517" y="22"/>
      <point x="517" y="0"/>
      <point x="517" y="22" type="curve"/>
      <point x="385" y="22"/>
      <point x="517" y="22"/>
      <point x="385" y="22" type="curve"/>
      <point x="385" y="0"/>
      <point x="385" y="22"/>
      <point x="385" y="0" type="curve"/>
      <point x="429" y="0"/>
      <point x="473" y="0"/>
      <point x="517" y="0" type="curve"/>
    </contour>
    <contour>
      <point x="517" y="722"/>
      <point x="517" y="700"/>
      <point x="517" y="722" type="curve"/>
      <point x="473" y="722"/>
      <point x="429" y="722"/>
      <point x="385" y="722" type="curve"/>
      <point x="385" y="700"/>
      <point x="385" y="722"/>
      <point x="385" y="700" type="curve"/>
      <point x="517" y="700"/>
      <point x="385" y="700"/>
      <point x="517" y="700" type="curve"/>
    </contour>
    <contour>
      <point x="163" y="700"/>
      <point x="163" y="722"/>
      <point x="163" y="700" type="curve"/>
      <point x="295" y="700"/>
      <point x="163" y="700"/>
      <point x="295" y="700" type="curve"/>
      <point x="295" y="722"/>
      <point x="295" y="700"/>
      <point x="295" y="722" type="curve"/>
      <point x="251" y="722"/>
      <point x="207" y="722"/>
      <point x="163" y="722" type="curve"/>
    </contour>
    <contour>
      <point x="163" y="722"/>
      <point x="163" y="700"/>
      <point x="163" y="722" type="curve"/>
      <point x="119" y="722"/>
      <point x="75" y="722"/>
      <point x="31" y="722" type="curve"/>
      <point x="31" y="700"/>
      <point x="31" y="722"/>
      <point x="31" y="700" type="curve"/>
      <point x="163" y="700"/>
      <point x="31" y="700"/>
      <point x="163" y="700" type="curve"/>
    </contour>
    <contour>
      <point x="163" y="0"/>
      <point x="163" y="22"/>
      <point x="163" y="0" type="curve"/>
      <point x="207" y="0"/>
      <point x="163" y="0"/>
      <point x="295" y="0" type="curve"/>
      <point x="295" y="22"/>
      <point x="295" y="0"/>
      <point x="295" y="22" type="curve"/>
      <point x="163" y="22"/>
      <point x="295" y="22"/>
      <point x="163" y="22" type="curve"/>
    </contour>
    <contour>
      <point x="163" y="22"/>
      <point x="163" y="0"/>
      <point x="163" y="22" type="curve"/>
      <point x="31" y="22"/>
      <point x="163" y="22"/>
      <point x="31" y="22" type="curve"/>
      <point x="31" y="0"/>
      <point x="31" y="22"/>
      <point x="31" y="0" type="curve"/>
      <point x="75" y="0"/>
      <point x="119" y="0"/>
      <point x="163" y="0" type="curve"/>
    </contour>
    <contour>
      <point x="175" y="0"/>
      <point x="151" y="0"/>
      <point x="175" y="0" type="curve"/>
      <point x="175" y="0"/>
      <point x="175" y="722"/>
      <point x="175" y="722" type="curve"/>
      <point x="151" y="722"/>
      <point x="175" y="722"/>
      <point x="151" y="722" type="curve"/>
      <point x="151" y="481"/>
      <point x="151" y="241"/>
      <point x="151" y="0" type="curve"/>
    </contour>
    <contour>
      <point x="515" y="374"/>
      <point x="515" y="352"/>
      <point x="515" y="374" type="curve"/>
      <point x="397" y="374"/>
      <point x="280" y="374"/>
      <point x="163" y="374" type="curve"/>
      <point x="163" y="352"/>
      <point x="163" y="374"/>
      <point x="163" y="352" type="curve"/>
      <point x="280" y="352"/>
      <point x="397" y="352"/>
      <point x="515" y="352" type="curve"/>
    </contour>
    <contour>
      <point x="528" y="1"/>
      <point x="504" y="1"/>
      <point x="528" y="1" type="curve"/>
      <point x="528" y="241"/>
      <point x="528" y="481"/>
      <point x="528" y="721" type="curve"/>
      <point x="504" y="721"/>
      <point x="528" y="721"/>
      <point x="504" y="721" type="curve"/>
      <point x="504" y="721"/>
      <point x="504" y="1"/>
      <point x="504" y="1" type="curve"/>
    </contour>
  </outline>
</glyph>
<glyph name="I" format="1">
  <advance width="312"/>
  <unicode hex="0049"/>
  <outline>
    <contour>
      <point x="153" y="722"/>
      <point x="153" y="700"/>
      <point x="153" y="722" type="curve"/>
      <point x="109" y="722"/>
      <point x="65" y="722"/>
      <point x="21" y="722" type="curve"/>
      <point x="21" y="700"/>
      <point x="21" y="722"/>
      <point x="21" y="700" type="curve"/>
      <point x="153" y="700"/>
      <point x="21" y="700"/>
      <point x="153" y="700" type="curve"/>
    </contour>
    <contour>
      <point x="153" y="700"/>
      <point x="153" y="722"/>
      <point x="153" y="700" type="curve"/>
      <point x="286" y="700"/>
      <point x="153" y="700"/>
      <point x="286" y="700" type="curve"/>
      <point x="286" y="722"/>
      <point x="286" y="700"/>
      <point x="286" y="722" type="curve"/>
      <point x="241" y="722"/>
      <point x="197" y="722"/>
      <point x="153" y="722" type="curve"/>
    </contour>
    <contour>
      <point x="153" y="0"/>
      <point x="153" y="22"/>
      <point x="153" y="0" type="curve"/>
      <point x="197" y="0"/>
      <point x="241" y="0"/>
      <point x="286" y="0" type="curve"/>
      <point x="286" y="22"/>
      <point x="286" y="0"/>
      <point x="286" y="22" type="curve"/>
      <point x="153" y="22"/>
      <point x="286" y="22"/>
      <point x="153" y="22" type="curve"/>
    </contour>
    <contour>
      <point x="153" y="22"/>
      <point x="153" y="0"/>
      <point x="153" y="22" type="curve"/>
      <point x="21" y="22"/>
      <point x="153" y="22"/>
      <point x="21" y="22" type="curve"/>
      <point x="21" y="0"/>
      <point x="21" y="22"/>
      <point x="21" y="0" type="curve"/>
      <point x="65" y="0"/>
      <point x="109" y="0"/>
      <point x="153" y="0" type="curve"/>
    </contour>
    <contour>
      <point x="165" y="0"/>
      <point x="141" y="0"/>
      <point x="165" y="0" type="curve"/>
      <point x="165" y="241"/>
      <point x="165" y="481"/>
      <point x="165" y="722" type="curve"/>
      <point x="141" y="722"/>
      <point x="165" y="722"/>
      <point x="141" y="722" type="curve"/>
      <point x="141" y="481"/>
      <point x="141" y="241"/>
      <point x="141" y="0" type="curve"/>
    </contour>
  </outline>
</glyph>
<glyph name="J" format="1">
  <advance width="397"/>
  <unicode hex="004A"/>
  <outline>
    <contour>
      <point x="231.7" y="722"/>
      <point x="231.7" y="700.44"/>
      <point x="231.7" y="722" type="curve"/>
      <point x="187.667107" y="722"/>
      <point x="143.632893" y="722"/>
      <point x="99.6" y="722" type="curve"/>
      <point x="99.6" y="700.44"/>
      <point x="99.6" y="722"/>
      <point x="99.6" y="700.44" type="curve"/>
      <point x="231.7" y="700.44"/>
      <point x="99.6" y="700.44"/>
      <point x="231.7" y="700.44" type="curve"/>
    </contour>
    <contour>
      <point x="231.7" y="700.44"/>
      <point x="231.7" y="722"/>
      <point x="231.7" y="700.44" type="curve"/>
      <point x="363.8" y="700.44"/>
      <point x="231.7" y="700.44"/>
      <point x="363.8" y="700.44" type="curve"/>
      <point x="363.8" y="722"/>
      <point x="363.8" y="700.44"/>
      <point x="363.8" y="722" type="curve"/>
      <point x="319.767107" y="722"/>
      <point x="275.732893" y="722"/>
      <point x="231.7" y="722" type="curve"/>
    </contour>
    <contour>
      <point x="32" y="49"/>
      <point x="29" y="44"/>
      <point x="24" y="38" type="curve"/>
      <point x="53" y="11"/>
      <point x="76" y="-5"/>
      <point x="115" y="-5" type="curve"/>
      <point x="221" y="-5"/>
      <point x="243" y="83"/>
      <point x="243" y="214" type="curve"/>
      <point x="243" y="406"/>
      <point x="243" y="530"/>
      <point x="243" y="722" type="curve"/>
      <point x="234" y="722"/>
      <point x="228" y="722"/>
      <point x="219" y="722" type="curve"/>
      <point x="219" y="530"/>
      <point x="219" y="406"/>
      <point x="219" y="214" type="curve"/>
      <point x="219" y="106"/>
      <point x="208" y="17"/>
      <point x="115" y="17" type="curve"/>
      <point x="81" y="17"/>
      <point x="62" y="33"/>
      <point x="37" y="55" type="curve"/>
    </contour>
  </outline>
</glyph>
<glyph name="L" format="1">
  <advance width="516"/>
  <unicode hex="004C"/>
  <outline>
    <contour>
      <point x="462" y="11"/>
      <point x="440" y="11"/>
      <point x="462" y="11" type="curve"/>
      <point x="462" y="131"/>
      <point x="462" y="11"/>
      <point x="462" y="131" type="curve"/>
      <point x="440" y="131"/>
      <point x="462" y="131"/>
      <point x="440" y="131" type="curve"/>
      <point x="440" y="11"/>
      <point x="440" y="131"/>
      <point x="440" y="11" type="curve"/>
    </contour>
    <contour>
      <point x="166" y="22"/>
      <point x="166" y="0"/>
      <point x="166" y="22" type="curve"/>
      <point x="34" y="22"/>
      <point x="166" y="22"/>
      <point x="34" y="22" type="curve"/>
      <point x="34" y="0"/>
      <point x="34" y="22"/>
      <point x="34" y="0" type="curve"/>
      <point x="78" y="0"/>
      <point x="122" y="0"/>
      <point x="166" y="0" type="curve"/>
    </contour>
    <contour>
      <point x="166" y="722"/>
      <point x="166" y="700"/>
      <point x="166" y="722" type="curve"/>
      <point x="122" y="722"/>
      <point x="78" y="722"/>
      <point x="34" y="722" type="curve"/>
      <point x="34" y="700"/>
      <point x="34" y="722"/>
      <point x="34" y="700" type="curve"/>
      <point x="166" y="700"/>
      <point x="34" y="700"/>
      <point x="166" y="700" type="curve"/>
    </contour>
    <contour>
      <point x="166" y="700"/>
      <point x="166" y="722"/>
      <point x="166" y="700" type="curve"/>
      <point x="298" y="700"/>
      <point x="166" y="700"/>
      <point x="298" y="700" type="curve"/>
      <point x="298" y="722"/>
      <point x="298" y="700"/>
      <point x="298" y="722" type="curve"/>
      <point x="254" y="722"/>
      <point x="210" y="722"/>
      <point x="166" y="722" type="curve"/>
    </contour>
    <contour>
      <point x="179" y="0"/>
      <point x="155" y="0"/>
      <point x="179" y="0" type="curve"/>
      <point x="179" y="241"/>
      <point x="179" y="481"/>
      <point x="179" y="722" type="curve"/>
      <point x="155" y="722"/>
      <point x="179" y="722"/>
      <point x="155" y="722" type="curve"/>
      <point x="155" y="481"/>
      <point x="155" y="241"/>
      <point x="155" y="0" type="curve"/>
    </contour>
    <contour>
      <point x="166" y="0"/>
      <point x="166" y="22"/>
      <point x="166" y="0" type="curve"/>
      <point x="265" y="0"/>
      <point x="363" y="0"/>
      <point x="462" y="0" type="curve"/>
      <point x="462" y="22"/>
      <point x="462" y="0"/>
      <point x="462" y="22" type="curve"/>
      <point x="363" y="22"/>
      <point x="265" y="22"/>
      <point x="166" y="22" type="curve"/>
    </contour>
  </outline>
</glyph>
<glyph name="M" format="1">
  <advance width="816"/>
  <unicode hex="004D"/>
  <outline>
    <contour>
      <point x="654" y="0"/>
      <point x="654" y="22"/>
      <point x="654" y="0" type="curve"/>
      <point x="698" y="0"/>
      <point x="742" y="0"/>
      <point x="786" y="0" type="curve"/>
      <point x="786" y="22"/>
      <point x="786" y="0"/>
      <point x="786" y="22" type="curve"/>
      <point x="654" y="22"/>
      <point x="786" y="22"/>
      <point x="654" y="22" type="curve"/>
    </contour>
    <contour>
      <point x="654" y="22"/>
      <point x="654" y="0"/>
      <point x="654" y="22" type="curve"/>
      <point x="521" y="22"/>
      <point x="654" y="22"/>
      <point x="521" y="22" type="curve"/>
      <point x="521" y="0"/>
      <point x="521" y="22"/>
      <point x="521" y="0" type="curve"/>
      <point x="565" y="0"/>
      <point x="609" y="0"/>
      <point x="654" y="0" type="curve"/>
    </contour>
    <contour>
      <point x="171" y="22"/>
      <point x="171" y="0"/>
      <point x="171" y="22" type="curve"/>
      <point x="39" y="22"/>
      <point x="171" y="22"/>
      <point x="39" y="22" type="curve"/>
      <point x="39" y="0"/>
      <point x="39" y="22"/>
      <point x="39" y="0" type="curve"/>
      <point x="83" y="0"/>
      <point x="127" y="0"/>
      <point x="171" y="0" type="curve"/>
    </contour>
    <contour>
      <point x="213" y="722"/>
      <point x="213" y="700"/>
      <point x="213" y="722" type="curve"/>
      <point x="168" y="722"/>
      <point x="124" y="722"/>
      <point x="80" y="722" type="curve"/>
      <point x="80" y="700"/>
      <point x="80" y="722"/>
      <point x="80" y="700" type="curve"/>
      <point x="213" y="700"/>
      <point x="80" y="700"/>
      <point x="213" y="700" type="curve"/>
    </contour>
    <contour>
      <point x="611" y="700"/>
      <point x="611" y="722"/>
      <point x="611" y="700" type="curve"/>
      <point x="743" y="700"/>
      <point x="611" y="700"/>
      <point x="743" y="700" type="curve"/>
      <point x="743" y="722"/>
      <point x="743" y="700"/>
      <point x="743" y="722" type="curve"/>
      <point x="699" y="722"/>
      <point x="655" y="722"/>
      <point x="611" y="722" type="curve"/>
    </contour>
    <contour>
      <point x="171" y="0"/>
      <point x="171" y="22"/>
      <point x="171" y="0" type="curve"/>
      <point x="215" y="0"/>
      <point x="171" y="0"/>
      <point x="303" y="0" type="curve"/>
      <point x="303" y="22"/>
      <point x="303" y="0"/>
      <point x="303" y="22" type="curve"/>
      <point x="171" y="22"/>
      <point x="303" y="22"/>
      <point x="171" y="22" type="curve"/>
    </contour>
    <contour>
      <point x="665" y="0"/>
      <point x="641" y="0"/>
      <point x="665" y="0" type="curve"/>
      <point x="650" y="241"/>
      <point x="636" y="481"/>
      <point x="621" y="722" type="curve"/>
      <point x="599" y="722"/>
      <point x="621" y="722"/>
      <point x="599" y="722" type="curve"/>
      <point x="613" y="481"/>
      <point x="627" y="241"/>
      <point x="641" y="0" type="curve"/>
    </contour>
    <contour>
      <point x="183" y="0"/>
      <point x="158" y="0"/>
      <point x="183" y="0" type="curve"/>
      <point x="196" y="241"/>
      <point x="209" y="481"/>
      <point x="222" y="722" type="curve"/>
      <point x="200" y="722"/>
      <point x="222" y="722"/>
      <point x="200" y="722" type="curve"/>
      <point x="186" y="481"/>
      <point x="172" y="241"/>
      <point x="158" y="0" type="curve"/>
    </contour>
    <contour>
      <point x="421" y="0"/>
      <point x="397" y="0"/>
      <point x="421" y="0" type="curve"/>
      <point x="355" y="241"/>
      <point x="289" y="481"/>
      <point x="224" y="722" type="curve"/>
      <point x="201" y="722"/>
      <point x="224" y="722"/>
      <point x="201" y="722" type="curve"/>
      <point x="267" y="481"/>
      <point x="332" y="241"/>
      <point x="397" y="0" type="curve"/>
    </contour>
    <contour>
      <point x="428" y="0"/>
      <point x="403" y="0"/>
      <point x="428" y="0" type="curve"/>
      <point x="492" y="241"/>
      <point x="556" y="481"/>
      <point x="620" y="722" type="curve"/>
      <point x="598" y="722"/>
      <point x="620" y="722"/>
      <point x="598" y="722" type="curve"/>
      <point x="533" y="481"/>
      <point x="468" y="241"/>
      <point x="403" y="0" type="curve"/>
    </contour>
  </outline>
</glyph>
<glyph name="N" format="1">
  <advance width="699"/>
  <unicode hex="004E"/>
  <outline>
    <contour>
      <point x="156" y="722"/>
      <point x="156" y="700"/>
      <point x="156" y="722" type="curve"/>
      <point x="112" y="722"/>
      <point x="68" y="722"/>
      <point x="24" y="722" type="curve"/>
      <point x="24" y="700"/>
      <point x="24" y="722"/>
      <point x="24" y="700" type="curve"/>
      <point x="156" y="700"/>
      <point x="24" y="700"/>
      <point x="156" y="700" type="curve"/>
    </contour>
    <contour>
      <point x="534" y="700"/>
      <point x="534" y="722"/>
      <point x="534" y="700" type="curve"/>
      <point x="666" y="700"/>
      <point x="534" y="700"/>
      <point x="666" y="700" type="curve"/>
      <point x="666" y="722"/>
      <point x="666" y="700"/>
      <point x="666" y="722" type="curve"/>
      <point x="622" y="722"/>
      <point x="578" y="722"/>
      <point x="534" y="722" type="curve"/>
    </contour>
    <contour>
      <point x="534" y="722"/>
      <point x="534" y="700"/>
      <point x="534" y="722" type="curve"/>
      <point x="490" y="722"/>
      <point x="446" y="722"/>
      <point x="402" y="722" type="curve"/>
      <point x="402" y="700"/>
      <point x="402" y="722"/>
      <point x="402" y="700" type="curve"/>
      <point x="534" y="700"/>
      <point x="402" y="700"/>
      <point x="534" y="700" type="curve"/>
    </contour>
    <contour>
      <point x="155" y="22"/>
      <point x="155" y="0"/>
      <point x="155" y="22" type="curve"/>
      <point x="23" y="22"/>
      <point x="155" y="22"/>
      <point x="23" y="22" type="curve"/>
      <point x="23" y="0"/>
      <point x="23" y="22"/>
      <point x="23" y="0" type="curve"/>
      <point x="67" y="0"/>
      <point x="111" y="0"/>
      <point x="155" y="0" type="curve"/>
    </contour>
    <contour>
      <point x="155" y="0"/>
      <point x="155" y="22"/>
      <point x="155" y="0" type="curve"/>
      <point x="199" y="0"/>
      <point x="155" y="0"/>
      <point x="287" y="0" type="curve"/>
      <point x="287" y="22"/>
      <point x="287" y="0"/>
      <point x="287" y="22" type="curve"/>
      <point x="155" y="22"/>
      <point x="287" y="22"/>
      <point x="155" y="22" type="curve"/>
    </contour>
    <contour>
      <point x="546" y="0"/>
      <point x="516" y="0"/>
      <point x="545" y="0" type="curve"/>
      <point x="420" y="241"/>
      <point x="295" y="481"/>
      <point x="170" y="722" type="curve"/>
      <point x="141" y="722"/>
      <point x="171" y="722"/>
      <point x="142" y="722" type="curve"/>
      <point x="267" y="481"/>
      <point x="392" y="241"/>
      <point x="517" y="0" type="curve"/>
    </contour>
    <contour>
      <point x="521" y="722"/>
      <point x="545" y="722"/>
      <point x="521" y="722" type="curve"/>
      <point x="521" y="481"/>
      <point x="521" y="241"/>
      <point x="521" y="0" type="curve"/>
      <point x="545" y="0"/>
      <point x="521" y="0"/>
      <point x="545" y="0" type="curve"/>
      <point x="545" y="241"/>
      <point x="545" y="481"/>
      <point x="545" y="722" type="curve"/>
    </contour>
    <contour>
      <point x="167" y="0"/>
      <point x="143" y="0"/>
      <point x="167" y="0" type="curve"/>
      <point x="167" y="241"/>
      <point x="167" y="481"/>
      <point x="167" y="722" type="curve"/>
      <point x="143" y="722"/>
      <point x="167" y="722"/>
      <point x="143" y="722" type="curve"/>
      <point x="143" y="481"/>
      <point x="143" y="241"/>
      <point x="143" y="0" type="curve"/>
    </contour>
  </outline>
</glyph>
<glyph name="S" format="1">
  <advance width="379"/>
  <unicode hex="0053"/>
  <outline>
    <contour>
      <point x="298" y="663"/>
      <point x="320" y="663"/>
      <point x="298" y="663" type="curve"/>
      <point x="298" y="543"/>
      <point x="298" y="663"/>
      <point x="298" y="543" type="curve"/>
      <point x="320" y="543"/>
      <point x="298" y="543"/>
      <point x="320" y="543" type="curve"/>
      <point x="320" y="663"/>
      <point x="320" y="543"/>
      <point x="320" y="663" type="curve"/>
    </contour>
    <contour>
      <point x="54" y="58"/>
      <point x="32" y="58"/>
      <point x="54" y="58" type="curve"/>
      <point x="54" y="178"/>
      <point x="54" y="58"/>
      <point x="54" y="178" type="curve"/>
      <point x="32" y="178"/>
      <point x="54" y="178"/>
      <point x="32" y="178" type="curve"/>
      <point x="32" y="58"/>
      <point x="32" y="178"/>
      <point x="32" y="58" type="curve"/>
    </contour>
    <contour>
      <point x="40" y="70"/>
      <point x="37" y="66"/>
      <point x="32" y="58" type="curve"/>
      <point x="76" y="19"/>
      <point x="111" y="-5"/>
      <point x="170" y="-5" type="curve"/>
      <point x="274" y="-5"/>
      <point x="333" y="62"/>
      <point x="333" y="169" type="curve"/>
      <point x="333" y="270"/>
      <point x="278" y="323"/>
      <point x="194" y="382" type="curve"/>
      <point x="121" y="432"/>
      <point x="72" y="476"/>
      <point x="72" y="563" type="curve"/>
      <point x="72" y="645"/>
      <point x="106" y="704"/>
      <point x="182" y="704" type="curve"/>
      <point x="236" y="704"/>
      <point x="268" y="681"/>
      <point x="309" y="646" type="curve"/>
      <point x="313" y="652"/>
      <point x="316" y="657"/>
      <point x="320" y="663" type="curve"/>
      <point x="275" y="701"/>
      <point x="242" y="726"/>
      <point x="183" y="726" type="curve"/>
      <point x="92" y="726"/>
      <point x="47" y="659"/>
      <point x="47" y="562" type="curve"/>
      <point x="47" y="467"/>
      <point x="99" y="419"/>
      <point x="178" y="364" type="curve"/>
      <point x="256" y="311"/>
      <point x="309" y="262"/>
      <point x="309" y="169" type="curve"/>
      <point x="309" y="77"/>
      <point x="261" y="17"/>
      <point x="172" y="17" type="curve"/>
      <point x="117" y="17"/>
      <point x="87" y="42"/>
      <point x="45" y="78" type="curve"/>
    </contour>
  </outline>
</glyph>
<glyph name="Y" format="1">
  <advance width="645"/>
  <unicode hex="0059"/>
  <outline>
    <contour>
      <point x="316" y="22"/>
      <point x="316" y="0"/>
      <point x="316" y="22" type="curve"/>
      <point x="184" y="22"/>
      <point x="316" y="22"/>
      <point x="184" y="22" type="curve"/>
      <point x="184" y="0"/>
      <point x="184" y="22"/>
      <point x="184" y="0" type="curve"/>
      <point x="228" y="0"/>
      <point x="272" y="0"/>
      <point x="316" y="0" type="curve"/>
    </contour>
    <contour>
      <point x="316" y="0"/>
      <point x="316" y="22"/>
      <point x="316" y="0" type="curve"/>
      <point x="360" y="0"/>
      <point x="404" y="0"/>
      <point x="448" y="0" type="curve"/>
      <point x="448" y="22"/>
      <point x="448" y="0"/>
      <point x="448" y="22" type="curve"/>
      <point x="316" y="22"/>
      <point x="448" y="22"/>
      <point x="316" y="22" type="curve"/>
    </contour>
    <contour>
      <point x="481" y="722"/>
      <point x="481" y="700"/>
      <point x="481" y="722" type="curve"/>
      <point x="437" y="722"/>
      <point x="393" y="722"/>
      <point x="349" y="722" type="curve"/>
      <point x="349" y="700"/>
      <point x="349" y="722"/>
      <point x="349" y="700" type="curve"/>
      <point x="481" y="700"/>
      <point x="349" y="700"/>
      <point x="481" y="700" type="curve"/>
    </contour>
    <contour>
      <point x="160" y="722"/>
      <point x="160" y="700"/>
      <point x="160" y="722" type="curve"/>
      <point x="116" y="722"/>
      <point x="72" y="722"/>
      <point x="28" y="722" type="curve"/>
      <point x="28" y="700"/>
      <point x="28" y="722"/>
      <point x="28" y="700" type="curve"/>
      <point x="160" y="700"/>
      <point x="28" y="700"/>
      <point x="160" y="700" type="curve"/>
    </contour>
    <contour>
      <point x="160" y="700"/>
      <point x="160" y="722"/>
      <point x="160" y="700" type="curve"/>
      <point x="292" y="700"/>
      <point x="160" y="700"/>
      <point x="292" y="700" type="curve"/>
      <point x="292" y="722"/>
      <point x="292" y="700"/>
      <point x="292" y="722" type="curve"/>
      <point x="248" y="722"/>
      <point x="204" y="722"/>
      <point x="160" y="722" type="curve"/>
    </contour>
    <contour>
      <point x="481" y="700"/>
      <point x="481" y="722"/>
      <point x="481" y="700" type="curve"/>
      <point x="613" y="700"/>
      <point x="481" y="700"/>
      <point x="613" y="700" type="curve"/>
      <point x="613" y="722"/>
      <point x="613" y="700"/>
      <point x="613" y="722" type="curve"/>
      <point x="569" y="722"/>
      <point x="525" y="722"/>
      <point x="481" y="722" type="curve"/>
    </contour>
    <contour>
      <point x="138" y="722"/>
      <point x="165" y="722"/>
      <point x="138" y="722" type="curve"/>
      <point x="193" y="594"/>
      <point x="248" y="465"/>
      <point x="303" y="337" type="curve"/>
      <point x="329" y="337"/>
      <point x="303" y="337"/>
      <point x="329" y="337" type="curve"/>
      <point x="274" y="465"/>
      <point x="219" y="594"/>
      <point x="165" y="722" type="curve"/>
    </contour>
    <contour>
      <point x="476" y="722"/>
      <point x="503" y="722"/>
      <point x="476" y="722" type="curve"/>
      <point x="419" y="594"/>
      <point x="361" y="465"/>
      <point x="303" y="337" type="curve"/>
      <point x="329" y="337"/>
      <point x="303" y="337"/>
      <point x="329" y="337" type="curve"/>
      <point x="387" y="465"/>
      <point x="445" y="594"/>
      <point x="503" y="722" type="curve"/>
    </contour>
    <contour>
      <point x="329" y="0"/>
      <point x="303" y="0"/>
      <point x="329" y="0" type="curve"/>
      <point x="329" y="115"/>
      <point x="329" y="231"/>
      <point x="329" y="346" type="curve"/>
      <point x="303" y="346"/>
      <point x="329" y="346"/>
      <point x="303" y="346" type="curve"/>
      <point x="303" y="231"/>
      <point x="303" y="115"/>
      <point x="303" y="0" type="curve"/>
    </contour>
  </outline>
</glyph>
<glyph name="backslash" format="1">
  <advance width="369"/>
  <unicode hex="005C"/>
  <outline>
    <contour>
      <point x="335.0" y="-68"/>
      <point x="309.7" y="-68"/>
      <point x="335.0" y="-68" type="curve"/>
      <point x="243.534248" y="235.99696"/>
      <point x="152.065752" y="540.00304"/>
      <point x="60.6" y="844" type="curve"/>
      <point x="35.3" y="844"/>
      <point x="60.6" y="844"/>
      <point x="35.3" y="844" type="curve"/>
      <point x="126.765752" y="540.00304"/>
      <point x="218.234248" y="235.99696"/>
      <point x="309.7" y="-68" type="curve"/>
    </contour>
  </outline>
</glyph>
<glyph name="bracketright" format="1">
  <advance width="232"/>
  <unicode hex="005D"/>
  <outline>
    <contour>
      <point x="51" y="747"/>
      <point x="51" y="771"/>
      <point x="51" y="747" type="curve"/>
      <point x="87" y="747"/>
      <point x="123" y="747"/>
      <point x="159" y="747" type="curve"/>
      <point x="156" y="750"/>
      <point x="152" y="752"/>
      <point x="150" y="756" type="curve"/>
      <point x="147" y="759"/>
      <point x="144" y="762"/>
      <point x="142" y="765" type="curve"/>
      <point x="142" y="470"/>
      <point x="141" y="175"/>
      <point x="142" y="-120" type="curve"/>
      <point x="144" y="-116"/>
      <point x="148" y="-113"/>
      <point x="151" y="-109" type="curve"/>
      <point x="153" y="-106"/>
      <point x="157" y="-104"/>
      <point x="159" y="-100" type="curve"/>
      <point x="123" y="-100"/>
      <point x="87" y="-100"/>
      <point x="51" y="-100" type="curve"/>
      <point x="51" y="-124"/>
      <point x="51" y="-100"/>
      <point x="51" y="-124" type="curve"/>
      <point x="87" y="-124"/>
      <point x="123" y="-124"/>
      <point x="159" y="-124" type="curve"/>
      <point x="166" y="-124"/>
      <point x="159" y="-124"/>
      <point x="166" y="-124" type="curve"/>
      <point x="166" y="-120"/>
      <point x="166" y="-124"/>
      <point x="166" y="-120" type="curve"/>
      <point x="166" y="175"/>
      <point x="166" y="470"/>
      <point x="166" y="765" type="curve"/>
      <point x="166" y="771"/>
      <point x="166" y="765"/>
      <point x="166" y="771" type="curve"/>
      <point x="159" y="771"/>
      <point x="166" y="771"/>
      <point x="159" y="771" type="curve"/>
      <point x="123" y="771"/>
      <point x="87" y="771"/>
      <point x="51" y="771" type="curve"/>
    </contour>
  </outline>
</glyph>
<glyph name="b" format="1">
  <advance width="502"/>
  <unicode hex="0062"/>
  <outline>
    <contour>
      <point x="158" y="800"/>
      <point x="158" y="778"/>
      <point x="158" y="800" type="curve"/>
      <point x="114" y="800"/>
      <point x="70" y="800"/>
      <point x="26" y="800" type="curve"/>
      <point x="26" y="778"/>
      <point x="26" y="800"/>
      <point x="26" y="778" type="curve"/>
      <point x="158" y="778"/>
      <point x="26" y="778"/>
      <point x="158" y="778" type="curve"/>
    </contour>
    <contour>
      <point x="163" y="408"/>
      <point x="151" y="424"/>
      <point x="163" y="408" type="curve"/>
      <point x="188" y="450"/>
      <point x="235" y="511"/>
      <point x="305" y="511" type="curve"/>
      <point x="416" y="511"/>
      <point x="438" y="394"/>
      <point x="438" y="263" type="curve"/>
      <point x="438" y="143"/>
      <point x="415" y="21"/>
      <point x="305" y="22" type="curve"/>
      <point x="241" y="22"/>
      <point x="201" y="57"/>
      <point x="165" y="110" type="curve"/>
      <point x="150" y="97"/>
      <point x="165" y="110"/>
      <point x="150" y="97" type="curve"/>
      <point x="187" y="36"/>
      <point x="235" y="0"/>
      <point x="306" y="0" type="curve"/>
      <point x="428" y="0"/>
      <point x="462" y="123"/>
      <point x="462" y="264" type="curve"/>
      <point x="462" y="407"/>
      <point x="431" y="533"/>
      <point x="307" y="533" type="curve"/>
      <point x="231" y="533"/>
      <point x="177" y="471"/>
      <point x="151" y="424" type="curve"/>
    </contour>
    <contour>
      <point x="168" y="0"/>
      <point x="144" y="0"/>
      <point x="168" y="0" type="curve"/>
      <point x="168" y="267"/>
      <point x="168" y="533"/>
      <point x="168" y="800" type="curve"/>
      <point x="144" y="800"/>
      <point x="168" y="800"/>
      <point x="144" y="800" type="curve"/>
      <point x="144" y="533"/>
      <point x="144" y="267"/>
      <point x="144" y="0" type="curve"/>
    </contour>
    <contour>
      <point x="158" y="22"/>
      <point x="158" y="0"/>
      <point x="158" y="22" type="curve"/>
      <point x="26" y="22"/>
      <point x="158" y="22"/>
      <point x="26" y="22" type="curve"/>
      <point x="26" y="0"/>
      <point x="26" y="22"/>
      <point x="26" y="0" type="curve"/>
      <point x="70" y="0"/>
      <point x="114" y="0"/>
      <point x="158" y="0" type="curve"/>
    </contour>
  </outline>
</glyph>
<glyph name="c" format="1">
  <advance width="406"/>
  <unicode hex="0063"/>
  <outline>
    <contour>
      <point x="316.12" y="472.939333333"/>
      <point x="337.9" y="472.939333333"/>
      <point x="316.12" y="472.939333333" type="curve"/>
      <point x="316.12" y="352.939333333"/>
      <point x="316.12" y="472.939333333"/>
      <point x="316.12" y="352.939333333" type="curve"/>
      <point x="337.9" y="352.939333333"/>
      <point x="316.12" y="352.939333333"/>
      <point x="337.9" y="352.939333333" type="curve"/>
      <point x="337.9" y="472.939333333"/>
      <point x="337.9" y="352.939333333"/>
      <point x="337.9" y="472.939333333" type="curve"/>
    </contour>
    <contour>
      <point x="337.9" y="472.939333333"/>
      <point x="323.6" y="457.847333333"/>
      <point x="337.9" y="472.939333333" type="curve"/>
      <point x="308.786507679" y="506.862024746"/>
      <point x="268.935657601" y="538"/>
      <point x="222.8" y="538" type="curve"/>
      <point x="89.3710562525" y="538"/>
      <point x="53.7" y="422.369442517"/>
      <point x="53.7" y="266.998479532" type="curve"/>
      <point x="53.7" y="111.501603282"/>
      <point x="87.2340403946" y="-5"/>
      <point x="221.0" y="-5" type="curve"/>
      <point x="274.80154711" y="-5"/>
      <point x="319" y="35"/>
      <point x="346" y="88" type="curve"/>
      <point x="330" y="98"/>
      <point x="346" y="88"/>
      <point x="330" y="98" type="curve"/>
      <point x="306" y="57"/>
      <point x="269" y="17"/>
      <point x="222" y="17" type="curve"/>
      <point x="104" y="17"/>
      <point x="77.9" y="127.770025343"/>
      <point x="77.9" y="266.998479532" type="curve"/>
      <point x="77.9" y="406.108610395"/>
      <point x="108" y="516"/>
      <point x="222" y="516" type="curve"/>
      <point x="262" y="516"/>
      <point x="297.965689833" y="487.235823303"/>
      <point x="323.6" y="457.847333333" type="curve"/>
    </contour>
  </outline>
</glyph>
<glyph name="e" format="1">
  <advance width="391"/>
  <unicode hex="0065"/>
  <outline>
    <contour>
      <point x="72.1" y="273.166783626"/>
      <point x="72.1" y="294.726783626"/>
      <point x="72.1" y="273.166783626" type="curve"/>
      <point x="163.332421" y="273.166783626"/>
      <point x="254.567579" y="273.166783626"/>
      <point x="345.8" y="273.166783626" type="curve"/>
      <point x="351.4" y="273.166783626"/>
      <point x="345.8" y="273.166783626"/>
      <point x="351.4" y="273.166783626" type="curve"/>
      <point x="351.4" y="275.971111111"/>
      <point x="351.4" y="273.166783626"/>
      <point x="351.4" y="275.971111111" type="curve"/>
      <point x="351.4" y="284.916639589"/>
      <point x="351.4" y="293.862436435"/>
      <point x="351.4" y="302.807964912" type="curve"/>
      <point x="351.4" y="434.832739277"/>
      <point x="323" y="538"/>
      <point x="210" y="538" type="curve"/>
      <point x="86" y="538"/>
      <point x="59.3" y="424.652105196"/>
      <point x="59.3" y="280.955906433" type="curve"/>
      <point x="59.3" y="121.511514332"/>
      <point x="89" y="-5"/>
      <point x="227" y="-5" type="curve"/>
      <point x="283" y="-5"/>
      <point x="316" y="27"/>
      <point x="351" y="76" type="curve"/>
      <point x="333" y="90"/>
      <point x="351" y="76"/>
      <point x="333.2" y="90.1475730994" type="curve"/>
      <point x="304.098035959" y="48.7270607428"/>
      <point x="277" y="17"/>
      <point x="227" y="17" type="curve"/>
      <point x="104" y="17"/>
      <point x="83.5" y="136.339778216"/>
      <point x="83.5" y="280.955906433" type="curve"/>
      <point x="83.5" y="409.804144607"/>
      <point x="101" y="516"/>
      <point x="208" y="516" type="curve"/>
      <point x="309" y="516"/>
      <point x="328.3" y="421.987160086"/>
      <point x="328.3" y="304.963964912" type="curve"/>
      <point x="328.3" y="295.299776955"/>
      <point x="328.3" y="285.635299069"/>
      <point x="328.3" y="275.971111111" type="curve"/>
      <point x="330.985319726" y="279.396804289"/>
      <point x="334.614680274" y="281.963774658"/>
      <point x="337.3" y="285.389467836" type="curve"/>
      <point x="339.767934922" y="288.815854977"/>
      <point x="343.332065078" y="291.300396485"/>
      <point x="345.8" y="294.726783626" type="curve"/>
      <point x="254.567579" y="294.726783626"/>
      <point x="163.332421" y="294.726783626"/>
      <point x="72.1" y="294.726783626" type="curve"/>
    </contour>
  </outline>
</glyph>
<glyph name="g" format="1">
  <advance width="393"/>
  <unicode hex="0067"/>
  <outline>
    <contour>
      <point x="297.8" y="460.136"/>
      <point x="284.6" y="477.384"/>
      <point x="297.8" y="460.136" type="curve"/>
      <point x="328.976720877" y="483.407953909"/>
      <point x="360.223279123" y="506.588157202"/>
      <point x="391.4" y="529.860111111" type="curve"/>
      <point x="379.3" y="550.342111111"/>
      <point x="391.4" y="529.860111111"/>
      <point x="379.3" y="550.342111111" type="curve"/>
      <point x="347.711732382" y="526.051445081"/>
      <point x="316.188267618" y="501.67466603"/>
      <point x="284.6" y="477.384" type="curve"/>
    </contour>
    <contour>
      <point x="84.9" y="358.046777778"/>
      <point x="60.7" y="356.968777778"/>
      <point x="84.9" y="358.046777778" type="curve"/>
      <point x="84.9" y="442.410244077"/>
      <point x="118.67414359" y="516.86"/>
      <point x="196" y="516.86" type="curve"/>
      <point x="272.772678033" y="516.86"/>
      <point x="303.6" y="445.540008678"/>
      <point x="303.6" y="360.959888889" type="curve"/>
      <point x="303.6" y="280.625618132"/>
      <point x="270.760619934" y="210.14"/>
      <point x="195.0" y="210.14" type="curve"/>
      <point x="121.035147633" y="210.14"/>
      <point x="84.9" y="277.035765241"/>
      <point x="84.9" y="358.046777778" type="curve"/>
      <point x="60.7" y="356.968777778"/>
      <point x="84.9" y="358.046777778"/>
      <point x="60.7" y="356.968777778" type="curve"/>
      <point x="60.7" y="263.185819814"/>
      <point x="106.123153366" y="188.58"/>
      <point x="192.8" y="188.58" type="curve"/>
      <point x="282.431105132" y="188.58"/>
      <point x="327.8" y="265.185635512"/>
      <point x="327.8" y="362.037888889" type="curve"/>
      <point x="327.8" y="459.312630345"/>
      <point x="285.370373125" y="538.42"/>
      <point x="196" y="538.42" type="curve"/>
      <point x="104.149697107" y="538.42"/>
      <point x="60.7" y="457.019714771"/>
      <point x="60.7" y="356.968777778" type="curve"/>
    </contour>
    <contour>
      <point x="119.8" y="226.781333333"/>
      <point x="130.8" y="213.845333333"/>
      <point x="119.8" y="226.781333333" type="curve"/>
      <point x="80.7614419846" y="196.496690404"/>
      <point x="63.5" y="158.83541026"/>
      <point x="63.5" y="109.479777778" type="curve"/>
      <point x="63.5" y="38.1073319369"/>
      <point x="116.720687721" y="-4.20398595562"/>
      <point x="190.3" y="-12.931" type="curve"/>
      <point x="276.172042528" y="-23.3549246653"/>
      <point x="343.9" y="-63.4293012621"/>
      <point x="343.9" y="-143.955777778" type="curve"/>
      <point x="343.669184299" y="-228.261884134"/>
      <point x="280.718050298" y="-282.773333333"/>
      <point x="192.7" y="-282.773333333" type="curve"/>
      <point x="108.059727405" y="-282.773333333"/>
      <point x="54.1" y="-220.259641387"/>
      <point x="54.1" y="-133.857666667" type="curve"/>
      <point x="54.1" y="-71.1337812948"/>
      <point x="76.4600414563" y="-20.6782312817"/>
      <point x="130.3" y="11.2964444444" type="curve"/>
      <point x="118.2" y="24.2324444444"/>
      <point x="130.3" y="11.2964444444"/>
      <point x="118.2" y="24.2324444444" type="curve"/>
      <point x="57.5905955261" y="-10.8913209366"/>
      <point x="29.9" y="-64.1257602505"/>
      <point x="29.9" y="-134.935666667" type="curve"/>
      <point x="29.9" y="-234.38058527"/>
      <point x="93.3900011283" y="-304.333333333"/>
      <point x="191.6" y="-304.333333333" type="curve"/>
      <point x="293.328931303" y="-304.333333333"/>
      <point x="367.349628799" y="-241.754422934"/>
      <point x="365.9" y="-141.799777778" type="curve"/>
      <point x="365.9" y="-50.7047175827"/>
      <point x="291.347796695" y="-3.51510174675"/>
      <point x="194.7" y="7.551" type="curve"/>
      <point x="132.240445379" y="14.0994268391"/>
      <point x="87.7" y="51.1495950901"/>
      <point x="87.7" y="111.635777778" type="curve"/>
      <point x="87.7" y="153.821167456"/>
      <point x="98.3469078684" y="186.899115802"/>
      <point x="130.8" y="213.845333333" type="curve"/>
    </contour>
  </outline>
</glyph>
<glyph name="j" format="1">
  <advance width="296"/>
  <unicode hex="006A"/>
  <outline>
    <contour>
      <point x="199" y="533"/>
      <point x="199" y="511"/>
      <point x="199" y="533" type="curve"/>
      <point x="154" y="533"/>
      <point x="110" y="533"/>
      <point x="66" y="533" type="curve"/>
      <point x="66" y="511"/>
      <point x="66" y="533"/>
      <point x="66" y="511" type="curve"/>
      <point x="199" y="511"/>
      <point x="66" y="511"/>
      <point x="199" y="511" type="curve"/>
    </contour>
    <contour>
      <point x="214" y="670"/>
      <point x="186" y="670"/>
      <point x="214" y="670" type="curve"/>
      <point x="214" y="679"/>
      <point x="209" y="684"/>
      <point x="200" y="684" type="curve"/>
      <point x="192" y="684"/>
      <point x="186" y="678"/>
      <point x="186" y="670" type="curve"/>
      <point x="214" y="670"/>
      <point x="186" y="670"/>
      <point x="214" y="670" type="curve"/>
      <point x="214" y="661"/>
      <point x="209" y="657"/>
      <point x="200" y="657" type="curve"/>
      <point x="192" y="657"/>
      <point x="186" y="662"/>
      <point x="186" y="670" type="curve"/>
    </contour>
    <contour>
      <point x="75" y="-297"/>
      <point x="78" y="-280"/>
      <point x="74" y="-301" type="curve"/>
      <point x="80" y="-302"/>
      <point x="88" y="-304"/>
      <point x="96" y="-304" type="curve"/>
      <point x="173" y="-304"/>
      <point x="211" y="-227"/>
      <point x="211" y="-142" type="curve"/>
      <point x="211" y="83"/>
      <point x="211" y="308"/>
      <point x="211" y="533" type="curve"/>
      <point x="187" y="533"/>
      <point x="211" y="533"/>
      <point x="187" y="533" type="curve"/>
      <point x="187" y="308"/>
      <point x="187" y="83"/>
      <point x="187" y="-142" type="curve"/>
      <point x="187" y="-215"/>
      <point x="162" y="-278"/>
      <point x="97" y="-278" type="curve"/>
      <point x="91" y="-278"/>
      <point x="83" y="-277"/>
      <point x="79" y="-276" type="curve"/>
    </contour>
  </outline>
</glyph>
<glyph name="o" format="1">
  <advance width="417"/>
  <unicode hex="006F"/>
  <outline>
    <contour>
      <point x="81.4" y="267.995438596"/>
      <point x="57.2" y="267.995438596"/>
      <point x="81.4" y="267.995438596" type="curve"/>
      <point x="81.4" y="130.591959663"/>
      <point x="101.198987766" y="16.56"/>
      <point x="220.7" y="16.56" type="curve"/>
      <point x="333" y="17"/>
      <point x="358.9" y="129.068846871"/>
      <point x="358.9" y="266.001520468" type="curve"/>
      <point x="358.9" y="403.75976595"/>
      <point x="334" y="517"/>
      <point x="217.5" y="516.86" type="curve"/>
      <point x="107" y="517"/>
      <point x="81.4" y="405.643734843"/>
      <point x="81.4" y="267.995438596" type="curve"/>
      <point x="57.2" y="267.995438596"/>
      <point x="81.4" y="267.995438596"/>
      <point x="57.2" y="267.995438596" type="curve"/>
      <point x="57.2" y="416.650680662"/>
      <point x="88.6465977726" y="538.42"/>
      <point x="218.6" y="538.42" type="curve"/>
      <point x="350.531013721" y="538.42"/>
      <point x="383.1" y="416.651923743"/>
      <point x="383.1" y="266.001520468" type="curve"/>
      <point x="383.1" y="115.220575427"/>
      <point x="350.807333566" y="-5"/>
      <point x="219.6" y="-5" type="curve"/>
      <point x="88.0780643035" y="-5"/>
      <point x="57.2" y="116.742860856"/>
      <point x="57.2" y="267.995438596" type="curve"/>
    </contour>
  </outline>
</glyph>
<glyph name="p" format="1">
  <advance width="540"/>
  <unicode hex="0070"/>
  <outline>
    <contour>
      <point x="165" y="-278"/>
      <point x="165" y="-300"/>
      <point x="165" y="-278" type="curve"/>
      <point x="33" y="-278"/>
      <point x="165" y="-278"/>
      <point x="33" y="-278" type="curve"/>
      <point x="33" y="-300"/>
      <point x="33" y="-278"/>
      <point x="33" y="-300" type="curve"/>
      <point x="77" y="-300"/>
      <point x="121" y="-300"/>
      <point x="165" y="-300" type="curve"/>
    </contour>
    <contour>
      <point x="165" y="-300"/>
      <point x="165" y="-278"/>
      <point x="165" y="-300" type="curve"/>
      <point x="207" y="-300"/>
      <point x="248" y="-300"/>
      <point x="290" y="-300" type="curve"/>
      <point x="290" y="-278"/>
      <point x="290" y="-300"/>
      <point x="290" y="-278" type="curve"/>
      <point x="165" y="-278"/>
      <point x="290" y="-278"/>
      <point x="165" y="-278" type="curve"/>
    </contour>
    <contour>
      <point x="166" y="533"/>
      <point x="166" y="511"/>
      <point x="166" y="533" type="curve"/>
      <point x="122" y="533"/>
      <point x="78" y="533"/>
      <point x="34" y="533" type="curve"/>
      <point x="34" y="511"/>
      <point x="34" y="533"/>
      <point x="34" y="511" type="curve"/>
      <point x="166" y="511"/>
      <point x="34" y="511"/>
      <point x="166" y="511" type="curve"/>
    </contour>
    <contour>
      <point x="171" y="423"/>
      <point x="159" y="438"/>
      <point x="171" y="423" type="curve"/>
      <point x="194" y="464"/>
      <point x="245" y="517"/>
      <point x="314" y="517" type="curve"/>
      <point x="421" y="517"/>
      <point x="447" y="404"/>
      <point x="447" y="276" type="curve"/>
      <point x="449" y="139"/>
      <point x="422" y="17"/>
      <point x="313" y="17" type="curve"/>
      <point x="246" y="17"/>
      <point x="211" y="65"/>
      <point x="173" y="122" type="curve"/>
      <point x="157" y="110"/>
      <point x="173" y="122"/>
      <point x="157" y="110" type="curve"/>
      <point x="197" y="46"/>
      <point x="238" y="-5"/>
      <point x="313" y="-5" type="curve"/>
      <point x="442" y="-5"/>
      <point x="471" y="128"/>
      <point x="471" y="278" type="curve"/>
      <point x="471" y="417"/>
      <point x="436" y="538"/>
      <point x="315" y="538" type="curve"/>
      <point x="240" y="538"/>
      <point x="184" y="484"/>
      <point x="159" y="438" type="curve"/>
    </contour>
    <contour>
      <point x="177" y="-300"/>
      <point x="153" y="-300"/>
      <point x="177" y="-300" type="curve"/>
      <point x="177" y="-22"/>
      <point x="177" y="255"/>
      <point x="177" y="533" type="curve"/>
      <point x="153" y="533"/>
      <point x="177" y="533"/>
      <point x="153" y="533" type="curve"/>
      <point x="153" y="255"/>
      <point x="153" y="-22"/>
      <point x="153" y="-300" type="curve"/>
    </contour>
  </outline>
</glyph>
<glyph name="q" format="1">
  <advance width="513"/>
  <unicode hex="0071"/>
  <outline>
    <contour>
      <point x="355" y="511"/>
      <point x="355" y="533"/>
      <point x="355" y="511" type="curve"/>
      <point x="480" y="511"/>
      <point x="355" y="511"/>
      <point x="480" y="511" type="curve"/>
      <point x="480" y="533"/>
      <point x="480" y="511"/>
      <point x="480" y="533" type="curve"/>
      <point x="438" y="533"/>
      <point x="396" y="533"/>
      <point x="355" y="533" type="curve"/>
    </contour>
    <contour>
      <point x="355" y="-279"/>
      <point x="355" y="-300"/>
      <point x="355" y="-279" type="curve"/>
      <point x="223" y="-278"/>
      <point x="355" y="-279"/>
      <point x="223" y="-278" type="curve"/>
      <point x="223" y="-300"/>
      <point x="223" y="-278"/>
      <point x="223" y="-300" type="curve"/>
      <point x="267" y="-300"/>
      <point x="311" y="-300"/>
      <point x="355" y="-300" type="curve"/>
    </contour>
    <contour>
      <point x="355" y="-300"/>
      <point x="355" y="-279"/>
      <point x="355" y="-300" type="curve"/>
      <point x="396" y="-300"/>
      <point x="438" y="-300"/>
      <point x="480" y="-300" type="curve"/>
      <point x="480" y="-278"/>
      <point x="480" y="-300"/>
      <point x="480" y="-278" type="curve"/>
      <point x="355" y="-279"/>
      <point x="480" y="-278"/>
      <point x="355" y="-279" type="curve"/>
    </contour>
    <contour>
      <point x="360" y="440"/>
      <point x="349" y="431"/>
      <point x="360" y="444" type="curve"/>
      <point x="323" y="496"/>
      <point x="267" y="538"/>
      <point x="204" y="538" type="curve"/>
      <point x="77" y="538"/>
      <point x="44" y="409"/>
      <point x="44" y="264" type="curve"/>
      <point x="45" y="120"/>
      <point x="81" y="-6"/>
      <point x="206" y="-6" type="curve"/>
      <point x="278" y="-6"/>
      <point x="330" y="58"/>
      <point x="360" y="121" type="curve"/>
      <point x="347" y="133"/>
      <point x="360" y="124"/>
      <point x="347" y="136" type="curve"/>
      <point x="318" y="77"/>
      <point x="271" y="16"/>
      <point x="206" y="16" type="curve"/>
      <point x="98" y="16"/>
      <point x="69" y="134"/>
      <point x="69" y="265" type="curve"/>
      <point x="69" y="396"/>
      <point x="96" y="516"/>
      <point x="205" y="516" type="curve"/>
      <point x="263" y="516"/>
      <point x="314" y="474"/>
      <point x="349" y="427" type="curve"/>
    </contour>
    <contour>
      <point x="366" y="-300"/>
      <point x="341" y="-300"/>
      <point x="366" y="-300" type="curve"/>
      <point x="366" y="-22"/>
      <point x="366" y="255"/>
      <point x="366" y="533" type="curve"/>
      <point x="341" y="533"/>
      <point x="366" y="533"/>
      <point x="341" y="533" type="curve"/>
      <point x="341" y="255"/>
      <point x="341" y="-22"/>
      <point x="341" y="-300" type="curve"/>
    </contour>
  </outline>
</glyph>
<glyph name="t" format="1">
  <advance width="334"/>
  <unicode hex="0074"/>
  <outline>
    <contour>
      <point x="30.1" y="476.035873418"/>
      <point x="30.1" y="497.595873418"/>
      <point x="30.1" y="476.035873418" type="curve"/>
      <point x="30.1" y="476.035873418"/>
      <point x="303.8" y="476.035873418"/>
      <point x="303.8" y="476.035873418" type="curve"/>
      <point x="303.8" y="497.595873418"/>
      <point x="303.8" y="476.035873418"/>
      <point x="303.8" y="497.595873418" type="curve"/>
      <point x="303.8" y="497.595873418"/>
      <point x="30.1" y="497.595873418"/>
      <point x="30.1" y="497.595873418" type="curve"/>
    </contour>
    <contour>
      <point x="285" y="46"/>
      <point x="297" y="24"/>
      <point x="285" y="46" type="curve"/>
      <point x="264" y="30"/>
      <point x="245.918429003" y="19.0"/>
      <point x="219" y="19" type="curve"/>
      <point x="157" y="19"/>
      <point x="150.0" y="71.9577424936"/>
      <point x="150.0" y="144.541873418" type="curve"/>
      <point x="150.0" y="144.541873418"/>
      <point x="150.0" y="651.007873418"/>
      <point x="150.0" y="651.007873418" type="curve"/>
      <point x="125.8" y="636.993873418"/>
      <point x="150.0" y="651.007873418"/>
      <point x="125.8" y="636.993873418" type="curve"/>
      <point x="125.8" y="636.993873418"/>
      <point x="125.8" y="143.463873418"/>
      <point x="125.8" y="143.463873418" type="curve"/>
      <point x="125.8" y="56.4291230195"/>
      <point x="142.981804526" y="-5.01012658228"/>
      <point x="216.6" y="-5.01012658228" type="curve"/>
      <point x="248.798877191" y="-5.01012658228"/>
      <point x="271" y="5"/>
      <point x="297" y="24" type="curve"/>
    </contour>
  </outline>
</glyph>
<glyph name="x" format="1">
  <advance width="619"/>
  <unicode hex="0078"/>
  <outline>
    <contour>
      <point x="165" y="22"/>
      <point x="165" y="0"/>
      <point x="165" y="22" type="curve"/>
      <point x="33" y="22"/>
      <point x="165" y="22"/>
      <point x="33" y="22" type="curve"/>
      <point x="33" y="0"/>
      <point x="33" y="22"/>
      <point x="33" y="0" type="curve"/>
      <point x="77" y="0"/>
      <point x="121" y="0"/>
      <point x="165" y="0" type="curve"/>
    </contour>
    <contour>
      <point x="454" y="22"/>
      <point x="454" y="0"/>
      <point x="454" y="22" type="curve"/>
      <point x="322" y="22"/>
      <point x="464" y="22"/>
      <point x="332" y="22" type="curve"/>
      <point x="332" y="0"/>
      <point x="332" y="22"/>
      <point x="332" y="0" type="curve"/>
      <point x="376" y="0"/>
      <point x="410" y="0"/>
      <point x="454" y="0" type="curve"/>
    </contour>
    <contour>
      <point x="454" y="0"/>
      <point x="454" y="22"/>
      <point x="454" y="0" type="curve"/>
      <point x="498" y="0"/>
      <point x="542" y="0"/>
      <point x="586" y="0" type="curve"/>
      <point x="586" y="22"/>
      <point x="586" y="0"/>
      <point x="586" y="22" type="curve"/>
      <point x="454" y="22"/>
      <point x="586" y="22"/>
      <point x="454" y="22" type="curve"/>
    </contour>
    <contour>
      <point x="165" y="0"/>
      <point x="165" y="22"/>
      <point x="165" y="0" type="curve"/>
      <point x="209" y="0"/>
      <point x="155" y="0"/>
      <point x="287" y="0" type="curve"/>
      <point x="287" y="22"/>
      <point x="287" y="0"/>
      <point x="287" y="22" type="curve"/>
      <point x="155" y="22"/>
      <point x="297" y="22"/>
      <point x="165" y="22" type="curve"/>
    </contour>
    <contour>
      <point x="442" y="511"/>
      <point x="442" y="533"/>
      <point x="442" y="511" type="curve"/>
      <point x="575" y="511"/>
      <point x="442" y="511"/>
      <point x="575" y="511" type="curve"/>
      <point x="575" y="533"/>
      <point x="575" y="511"/>
      <point x="575" y="533" type="curve"/>
      <point x="530" y="533"/>
      <point x="486" y="533"/>
      <point x="442" y="533" type="curve"/>
    </contour>
    <contour>
      <point x="179" y="533"/>
      <point x="179" y="511"/>
      <point x="179" y="533" type="curve"/>
      <point x="135" y="533"/>
      <point x="91" y="533"/>
      <point x="47" y="533" type="curve"/>
      <point x="47" y="511"/>
      <point x="47" y="533"/>
      <point x="47" y="511" type="curve"/>
      <point x="179" y="511"/>
      <point x="47" y="511"/>
      <point x="179" y="511" type="curve"/>
    </contour>
    <contour>
      <point x="179" y="511"/>
      <point x="179" y="533"/>
      <point x="179" y="511" type="curve"/>
      <point x="311" y="511"/>
      <point x="159" y="511"/>
      <point x="291" y="511" type="curve"/>
      <point x="291" y="533"/>
      <point x="291" y="511"/>
      <point x="291" y="533" type="curve"/>
      <point x="247" y="533"/>
      <point x="223" y="533"/>
      <point x="179" y="533" type="curve"/>
    </contour>
    <contour>
      <point x="442" y="533"/>
      <point x="442" y="511"/>
      <point x="442" y="533" type="curve"/>
      <point x="398" y="533"/>
      <point x="374" y="533"/>
      <point x="330" y="533" type="curve"/>
      <point x="330" y="511"/>
      <point x="330" y="533"/>
      <point x="330" y="511" type="curve"/>
      <point x="462" y="511"/>
      <point x="310" y="511"/>
      <point x="442" y="511" type="curve"/>
    </contour>
    <contour>
      <point x="478" y="0"/>
      <point x="448" y="0"/>
      <point x="478" y="0" type="curve"/>
      <point x="380" y="178"/>
      <point x="283" y="355"/>
      <point x="185" y="533" type="curve"/>
      <point x="158" y="533"/>
      <point x="185" y="533"/>
      <point x="158" y="533" type="curve"/>
      <point x="255" y="355"/>
      <point x="352" y="178"/>
      <point x="448" y="0" type="curve"/>
    </contour>
    <contour>
      <point x="438" y="533"/>
      <point x="465" y="533"/>
      <point x="438" y="533" type="curve"/>
      <point x="339" y="355"/>
      <point x="240" y="178"/>
      <point x="142" y="0" type="curve"/>
      <point x="172" y="0"/>
      <point x="142" y="0"/>
      <point x="172" y="0" type="curve"/>
      <point x="270" y="178"/>
      <point x="367" y="355"/>
      <point x="465" y="533" type="curve"/>
    </contour>
  </outline>
</glyph>
<glyph name="y" format="1">
  <advance width="615"/>
  <unicode hex="0079"/>
  <outline>
    <contour>
      <point x="188" y="-279"/>
      <point x="188" y="-300"/>
      <point x="188" y="-279" type="curve"/>
      <point x="56" y="-278"/>
      <point x="188" y="-279"/>
      <point x="56" y="-278" type="curve"/>
      <point x="56" y="-300"/>
      <point x="56" y="-278"/>
      <point x="56" y="-300" type="curve"/>
      <point x="100" y="-300"/>
      <point x="144" y="-300"/>
      <point x="188" y="-300" type="curve"/>
    </contour>
    <contour>
      <point x="172" y="533"/>
      <point x="172" y="511"/>
      <point x="172" y="533" type="curve"/>
      <point x="128" y="533"/>
      <point x="84" y="533"/>
      <point x="40" y="533" type="curve"/>
      <point x="40" y="511"/>
      <point x="40" y="533"/>
      <point x="40" y="511" type="curve"/>
      <point x="172" y="511"/>
      <point x="40" y="511"/>
      <point x="172" y="511" type="curve"/>
    </contour>
    <contour>
      <point x="172" y="511"/>
      <point x="172" y="533"/>
      <point x="172" y="511" type="curve"/>
      <point x="304" y="511"/>
      <point x="172" y="511"/>
      <point x="304" y="511" type="curve"/>
      <point x="304" y="533"/>
      <point x="304" y="511"/>
      <point x="304" y="533" type="curve"/>
      <point x="260" y="533"/>
      <point x="216" y="533"/>
      <point x="172" y="533" type="curve"/>
    </contour>
    <contour>
      <point x="455" y="533"/>
      <point x="455" y="511"/>
      <point x="455" y="533" type="curve"/>
      <point x="411" y="533"/>
      <point x="367" y="533"/>
      <point x="323" y="533" type="curve"/>
      <point x="323" y="511"/>
      <point x="323" y="533"/>
      <point x="323" y="511" type="curve"/>
      <point x="455" y="511"/>
      <point x="323" y="511"/>
      <point x="455" y="511" type="curve"/>
    </contour>
    <contour>
      <point x="455" y="511"/>
      <point x="455" y="533"/>
      <point x="455" y="511" type="curve"/>
      <point x="587" y="511"/>
      <point x="455" y="511"/>
      <point x="587" y="511" type="curve"/>
      <point x="587" y="533"/>
      <point x="587" y="511"/>
      <point x="587" y="533" type="curve"/>
      <point x="543" y="533"/>
      <point x="499" y="533"/>
      <point x="455" y="533" type="curve"/>
    </contour>
    <contour>
      <point x="319" y="69"/>
      <point x="296" y="77"/>
      <point x="319" y="77" type="curve"/>
      <point x="272" y="229"/>
      <point x="224" y="381"/>
      <point x="177" y="533" type="curve"/>
      <point x="149" y="533"/>
      <point x="177" y="533"/>
      <point x="149" y="533" type="curve"/>
      <point x="198" y="381"/>
      <point x="247" y="221"/>
      <point x="296" y="69" type="curve"/>
    </contour>
    <contour>
      <point x="193" y="-300"/>
      <point x="165" y="-300"/>
      <point x="193" y="-300" type="curve"/>
      <point x="287" y="-22"/>
      <point x="382" y="255"/>
      <point x="477" y="533" type="curve"/>
      <point x="450" y="533"/>
      <point x="477" y="533"/>
      <point x="450" y="533" type="curve"/>
      <point x="355" y="255"/>
      <point x="260" y="-22"/>
      <point x="165" y="-300" type="curve"/>
    </contour>
  </outline>
</glyph>
<glyph name="dvI" format="1">
  <advance width="393"/>
  <unicode hex="0907"/>
  <outline>
    <contour>
      <point x="-7" y="700"/>
      <point x="-7" y="722"/>
      <point x="-7" y="700" type="curve"/>
      <point x="129" y="700"/>
      <point x="265" y="700"/>
      <point x="401" y="700" type="curve"/>
      <point x="401" y="722"/>
      <point x="401" y="700"/>
      <point x="401" y="722" type="curve"/>
      <point x="265" y="722"/>
      <point x="129" y="722"/>
      <point x="-7" y="722" type="curve"/>
    </contour>
    <contour>
      <point x="104" y="266"/>
      <point x="107" y="293"/>
      <point x="104" y="266" type="curve"/>
      <point x="148" y="296"/>
      <point x="179" y="309"/>
      <point x="232" y="309" type="curve"/>
      <point x="293" y="309"/>
      <point x="319" y="264"/>
      <point x="318" y="197" type="curve"/>
      <point x="318" y="107"/>
      <point x="270" y="52"/>
      <point x="182" y="52" type="curve"/>
      <point x="120" y="52"/>
      <point x="88" y="88"/>
      <point x="76" y="150" type="curve"/>
      <point x="56" y="135"/>
      <point x="76" y="150"/>
      <point x="56" y="135" type="curve"/>
      <point x="67" y="64"/>
      <point x="110" y="29"/>
      <point x="182" y="29" type="curve"/>
      <point x="286" y="29"/>
      <point x="343" y="93"/>
      <point x="343" y="197" type="curve"/>
      <point x="342" y="276"/>
      <point x="309" y="331"/>
      <point x="234" y="331" type="curve"/>
      <point x="182" y="332"/>
      <point x="150" y="321"/>
      <point x="107" y="293" type="curve"/>
    </contour>
    <contour>
      <point x="56" y="135"/>
      <point x="76" y="150"/>
      <point x="56" y="135" type="curve"/>
      <point x="110" y="43"/>
      <point x="164" y="-49"/>
      <point x="217" y="-140" type="curve"/>
      <point x="239" y="-124"/>
      <point x="217" y="-140"/>
      <point x="239" y="-124" type="curve"/>
      <point x="185" y="-33"/>
      <point x="130" y="59"/>
      <point x="76" y="150" type="curve"/>
    </contour>
    <contour>
      <point x="299" y="522"/>
      <point x="275" y="543"/>
      <point x="299" y="522" type="curve"/>
      <point x="299" y="585"/>
      <point x="299" y="647"/>
      <point x="299" y="710" type="curve"/>
      <point x="275" y="710"/>
      <point x="299" y="710"/>
      <point x="275" y="710" type="curve"/>
      <point x="275" y="655"/>
      <point x="275" y="599"/>
      <point x="275" y="543" type="curve"/>
    </contour>
    <contour>
      <point x="275" y="543"/>
      <point x="299" y="522"/>
      <point x="275" y="543" type="curve"/>
      <point x="233" y="543"/>
      <point x="191" y="543"/>
      <point x="149" y="543" type="curve"/>
      <point x="74" y="543"/>
      <point x="31" y="497"/>
      <point x="31" y="417" type="curve"/>
      <point x="32" y="350"/>
      <point x="57" y="310"/>
      <point x="104" y="266" type="curve"/>
      <point x="107" y="293"/>
      <point x="104" y="266"/>
      <point x="107" y="293" type="curve"/>
      <point x="73" y="330"/>
      <point x="56" y="364"/>
      <point x="56" y="417" type="curve"/>
      <point x="56" y="483"/>
      <point x="89" y="522"/>
      <point x="149" y="522" type="curve"/>
      <point x="199" y="522"/>
      <point x="249" y="522"/>
      <point x="299" y="522" type="curve"/>
    </contour>
  </outline>
</glyph>
<glyph name="dvKHA" format="1">
  <advance width="679"/>
  <unicode hex="0916"/>
  <outline>
    <contour>
      <point x="543" y="0"/>
      <point x="543" y="22"/>
      <point x="543" y="0" type="curve"/>
      <point x="585" y="0"/>
      <point x="626" y="0"/>
      <point x="668" y="0" type="curve"/>
      <point x="668" y="22"/>
      <point x="668" y="0"/>
      <point x="668" y="22" type="curve"/>
      <point x="543" y="22"/>
      <point x="668" y="22"/>
      <point x="543" y="22" type="curve"/>
    </contour>
    <contour>
      <point x="531" y="710"/>
      <point x="555" y="710"/>
      <point x="531" y="710" type="curve"/>
      <point x="531" y="473"/>
      <point x="531" y="237"/>
      <point x="531" y="0" type="curve"/>
      <point x="555" y="0"/>
      <point x="531" y="0"/>
      <point x="555" y="0" type="curve"/>
      <point x="555" y="237"/>
      <point x="555" y="473"/>
      <point x="555" y="710" type="curve"/>
    </contour>
    <contour>
      <point x="-9" y="700"/>
      <point x="-9" y="722"/>
      <point x="-9" y="700" type="curve"/>
      <point x="221.676602086" y="700.0"/>
      <point x="451.323397914" y="700.0"/>
      <point x="682" y="700" type="curve"/>
      <point x="682" y="722"/>
      <point x="682" y="700"/>
      <point x="682" y="722" type="curve"/>
      <point x="451.323397914" y="722.0"/>
      <point x="221.676602086" y="722.0"/>
      <point x="-9" y="722" type="curve"/>
    </contour>
    <contour>
      <point x="550" y="482"/>
      <point x="535" y="468"/>
      <point x="550" y="482" type="curve"/>
      <point x="529" y="526"/>
      <point x="491" y="553"/>
      <point x="443" y="553" type="curve"/>
      <point x="366" y="553"/>
      <point x="339" y="488"/>
      <point x="339" y="402" type="curve"/>
      <point x="339" y="316"/>
      <point x="370" y="251"/>
      <point x="444" y="251" type="curve"/>
      <point x="493" y="251"/>
      <point x="530" y="282"/>
      <point x="551" y="329" type="curve"/>
      <point x="534" y="342"/>
      <point x="551" y="329"/>
      <point x="534" y="342" type="curve"/>
      <point x="514" y="303"/>
      <point x="486" y="273"/>
      <point x="444" y="273" type="curve"/>
      <point x="384" y="273"/>
      <point x="363" y="331"/>
      <point x="363" y="402" type="curve"/>
      <point x="363" y="471"/>
      <point x="382" y="531"/>
      <point x="443" y="531" type="curve"/>
      <point x="484" y="531"/>
      <point x="513" y="506"/>
      <point x="535" y="468" type="curve"/>
    </contour>
    <contour>
      <point x="418" y="265"/>
      <point x="437" y="260"/>
      <point x="418" y="265" type="curve"/>
      <point x="395" y="176"/>
      <point x="341" y="93"/>
      <point x="239" y="93" type="curve"/>
      <point x="77" y="93"/>
      <point x="61" y="275"/>
      <point x="61" y="464" type="curve"/>
      <point x="41" y="459"/>
      <point x="61" y="464"/>
      <point x="41" y="459" type="curve"/>
      <point x="41" y="262"/>
      <point x="57" y="72"/>
      <point x="238" y="72" type="curve"/>
      <point x="351" y="72"/>
      <point x="413" y="160"/>
      <point x="437" y="260" type="curve"/>
    </contour>
    <contour>
      <point x="152" y="706"/>
      <point x="166" y="719"/>
      <point x="152" y="706" type="curve"/>
      <point x="195" y="645"/>
      <point x="216" y="587"/>
      <point x="216" y="513" type="curve"/>
      <point x="216" y="445"/>
      <point x="205" y="384"/>
      <point x="147" y="384" type="curve"/>
      <point x="98" y="384"/>
      <point x="79" y="420"/>
      <point x="61" y="464" type="curve"/>
      <point x="41" y="459"/>
      <point x="61" y="464"/>
      <point x="41" y="459" type="curve"/>
      <point x="61" y="404"/>
      <point x="87" y="362"/>
      <point x="146" y="362" type="curve"/>
      <point x="217" y="362"/>
      <point x="240" y="433"/>
      <point x="240" y="514" type="curve"/>
      <point x="240" y="594"/>
      <point x="212" y="653"/>
      <point x="166" y="719" type="curve"/>
    </contour>
  </outline>
</glyph>
<glyph name="dvGHA" format="1">
  <advance width="462"/>
  <unicode hex="0918"/>
  <outline>
    <contour>
      <point x="339.7" y="251.846111111"/>
      <point x="354.0" y="235.676111111"/>
      <point x="339.7" y="251.846111111" type="curve"/>
      <point x="298.328723778" y="194.71219858"/>
      <point x="261.555582574" y="158.255555556"/>
      <point x="196.2" y="158.255555556" type="curve"/>
      <point x="114.995491883" y="158.255555556"/>
      <point x="61.1" y="222.0804786"/>
      <point x="61.1" y="301.173444444" type="curve"/>
      <point x="61.1" y="385.116614128"/>
      <point x="112.916095782" y="440.140333333"/>
      <point x="189.7" y="440.140333333" type="curve"/>
      <point x="189.7" y="458.466333333"/>
      <point x="189.7" y="440.140333333"/>
      <point x="189.7" y="458.466333333" type="curve"/>
      <point x="99.8956108574" y="458.466333333"/>
      <point x="36.9" y="396.063310654"/>
      <point x="36.9" y="300.095444444" type="curve"/>
      <point x="36.9" y="208.104143624"/>
      <point x="100.001429268" y="136.695555556"/>
      <point x="195.1" y="136.695555556" type="curve"/>
      <point x="266.07869211" y="136.695555556"/>
      <point x="310.443080035" y="173.53341107"/>
      <point x="354.0" y="235.676111111" type="curve"/>
    </contour>
    <contour>
      <point x="123.2" y="717.728111111"/>
      <point x="138.6" y="703.714111111"/>
      <point x="123.2" y="717.728111111" type="curve"/>
      <point x="71.1351347026" y="701.792747021"/>
      <point x="41.245944788" y="644.996770872"/>
      <point x="41.1" y="583.464333333" type="curve"/>
      <point x="40.9683536415" y="500.406856249"/>
      <point x="103.186729357" y="443.093555556"/>
      <point x="189.7" y="443.093555556" type="curve"/>
      <point x="189.7" y="462.497555556"/>
      <point x="189.7" y="443.093555556"/>
      <point x="189.7" y="462.497555556" type="curve"/>
      <point x="117.002903822" y="462.497555556"/>
      <point x="65.9944206238" y="512.587463615"/>
      <point x="65.3" y="584.542333333" type="curve"/>
      <point x="64.5248525407" y="637.719374825"/>
      <point x="93.0900159001" y="687.855334174"/>
      <point x="138.6" y="703.714111111" type="curve"/>
    </contour>
    <contour>
      <point x="333.7" y="710"/>
      <point x="357.9" y="710"/>
      <point x="333.7" y="710" type="curve"/>
      <point x="333.7" y="473.3357"/>
      <point x="333.7" y="236.6643"/>
      <point x="333.7" y="1.45213821436e-15" type="curve"/>
      <point x="357.9" y="-2.90427642873e-15"/>
      <point x="333.7" y="1.45213821436e-15"/>
      <point x="357.9" y="-2.90427642873e-15" type="curve"/>
      <point x="357.9" y="236.6643"/>
      <point x="357.9" y="473.3357"/>
      <point x="357.9" y="710" type="curve"/>
    </contour>
    <contour>
      <point x="475" y="722"/>
      <point x="475" y="700"/>
      <point x="475" y="722" type="curve"/>
      <point x="324" y="722"/>
      <point x="142.798488" y="722"/>
      <point x="-8.4" y="722" type="curve"/>
      <point x="-8.4" y="700.44"/>
      <point x="-8.4" y="722"/>
      <point x="-8.4" y="700.44" type="curve"/>
      <point x="142.798488" y="700.44"/>
      <point x="324" y="700"/>
      <point x="475" y="700" type="curve"/>
    </contour>
  </outline>
</glyph>
<glyph name="dvNNA" format="1">
  <advance width="603"/>
  <unicode hex="0923"/>
  <outline>
    <contour>
      <point x="468" y="0"/>
      <point x="468" y="22"/>
      <point x="468" y="0" type="curve"/>
      <point x="510" y="0"/>
      <point x="552" y="0"/>
      <point x="593" y="0" type="curve"/>
      <point x="593" y="22"/>
      <point x="593" y="0"/>
      <point x="593" y="22" type="curve"/>
      <point x="468" y="22"/>
      <point x="593" y="22"/>
      <point x="468" y="22" type="curve"/>
    </contour>
    <contour>
      <point x="468" y="22"/>
      <point x="468" y="0"/>
      <point x="468" y="22" type="curve"/>
      <point x="336" y="22"/>
      <point x="468" y="22"/>
      <point x="336" y="22" type="curve"/>
      <point x="336" y="0"/>
      <point x="336" y="22"/>
      <point x="336" y="0" type="curve"/>
      <point x="380" y="0"/>
      <point x="424" y="0"/>
      <point x="468" y="0" type="curve"/>
    </contour>
    <contour>
      <point x="610" y="722"/>
      <point x="610" y="700"/>
      <point x="610" y="722" type="curve"/>
      <point x="422" y="722"/>
      <point x="183" y="722"/>
      <point x="-4" y="722" type="curve"/>
      <point x="-4" y="700"/>
      <point x="-4" y="722"/>
      <point x="-4" y="700" type="curve"/>
      <point x="183" y="700"/>
      <point x="422" y="700"/>
      <point x="610" y="700" type="curve"/>
    </contour>
    <contour>
      <point x="66" y="709"/>
      <point x="90" y="709"/>
      <point x="66" y="709" type="curve"/>
      <point x="66" y="606"/>
      <point x="66" y="503"/>
      <point x="66" y="400" type="curve"/>
      <point x="66" y="298"/>
      <point x="103" y="212"/>
      <point x="195" y="212" type="curve"/>
      <point x="287" y="212"/>
      <point x="324" y="298"/>
      <point x="324" y="400" type="curve"/>
      <point x="324" y="503"/>
      <point x="324" y="606"/>
      <point x="324" y="709" type="curve"/>
      <point x="300" y="709"/>
      <point x="324" y="709"/>
      <point x="300" y="709" type="curve"/>
      <point x="300" y="605"/>
      <point x="300" y="501"/>
      <point x="300" y="397" type="curve"/>
      <point x="300" y="308"/>
      <point x="273" y="233"/>
      <point x="195" y="233" type="curve"/>
      <point x="118" y="233"/>
      <point x="90" y="310"/>
      <point x="90" y="397" type="curve"/>
      <point x="90" y="501"/>
      <point x="90" y="605"/>
      <point x="90" y="709" type="curve"/>
    </contour>
    <contour>
      <point x="456" y="710"/>
      <point x="480" y="710"/>
      <point x="456" y="710" type="curve"/>
      <point x="456" y="473"/>
      <point x="456" y="237"/>
      <point x="456" y="0" type="curve"/>
      <point x="480" y="0"/>
      <point x="456" y="0"/>
      <point x="480" y="0" type="curve"/>
      <point x="480" y="237"/>
      <point x="480" y="473"/>
      <point x="480" y="710" type="curve"/>
    </contour>
  </outline>
</glyph>
<glyph name="dvTA" format="1">
  <advance width="498"/>
  <unicode hex="0924"/>
  <outline>
    <contour>
      <point x="198" y="17"/>
      <point x="185" y="-2"/>
      <point x="198" y="17" type="curve"/>
      <point x="107" y="80"/>
      <point x="72" y="160"/>
      <point x="72" y="257" type="curve"/>
      <point x="72" y="373"/>
      <point x="108" y="447"/>
      <point x="192" y="447" type="curve"/>
      <point x="247" y="447"/>
      <point x="301" y="447"/>
      <point x="356" y="447" type="curve"/>
      <point x="356" y="469"/>
      <point x="356" y="447"/>
      <point x="356" y="469" type="curve"/>
      <point x="301" y="469"/>
      <point x="246" y="469"/>
      <point x="191" y="469" type="curve"/>
      <point x="95" y="469"/>
      <point x="47" y="387"/>
      <point x="47" y="257" type="curve"/>
      <point x="47" y="151"/>
      <point x="84" y="65"/>
      <point x="185" y="-2" type="curve"/>
    </contour>
    <contour>
      <point x="356" y="0"/>
      <point x="356" y="22"/>
      <point x="356" y="0" type="curve"/>
      <point x="398" y="0"/>
      <point x="440" y="0"/>
      <point x="481" y="0" type="curve"/>
      <point x="481" y="22"/>
      <point x="481" y="0"/>
      <point x="481" y="22" type="curve"/>
      <point x="356" y="22"/>
      <point x="481" y="22"/>
      <point x="356" y="22" type="curve"/>
    </contour>
    <contour>
      <point x="367" y="0"/>
      <point x="343" y="0"/>
      <point x="367" y="0" type="curve"/>
      <point x="367" y="237"/>
      <point x="367" y="473"/>
      <point x="367" y="710" type="curve"/>
      <point x="343" y="710"/>
      <point x="367" y="710"/>
      <point x="343" y="710" type="curve"/>
      <point x="343" y="473"/>
      <point x="343" y="237"/>
      <point x="343" y="0" type="curve"/>
    </contour>
    <contour>
      <point x="-8" y="703"/>
      <point x="-8" y="719"/>
      <point x="-8" y="700" type="curve"/>
      <point x="145" y="700"/>
      <point x="359" y="700"/>
      <point x="512" y="700" type="curve"/>
      <point x="512" y="719"/>
      <point x="512" y="703"/>
      <point x="512" y="722" type="curve"/>
      <point x="359" y="722"/>
      <point x="145" y="722"/>
      <point x="-8" y="722" type="curve"/>
    </contour>
  </outline>
</glyph>
<glyph name="dvNA" format="1">
  <advance width="488"/>
  <unicode hex="0928"/>
  <outline>
    <contour>
      <point x="340.9" y="21.56"/>
      <point x="340.9" y="0"/>
      <point x="340.9" y="21.56" type="curve"/>
      <point x="208.8" y="21.56"/>
      <point x="340.9" y="21.56"/>
      <point x="208.8" y="21.56" type="curve"/>
      <point x="208.8" y="0"/>
      <point x="208.8" y="21.56"/>
      <point x="208.8" y="0" type="curve"/>
      <point x="252.832893" y="-5.3922960545e-15"/>
      <point x="296.867107" y="5.3922960545e-15"/>
      <point x="340.9" y="0" type="curve"/>
    </contour>
    <contour>
      <point x="340.9" y="0"/>
      <point x="340.9" y="21.56"/>
      <point x="340.9" y="0" type="curve"/>
      <point x="382.599583" y="0"/>
      <point x="424.300417" y="0"/>
      <point x="466" y="0" type="curve"/>
      <point x="466" y="21.56"/>
      <point x="466" y="0"/>
      <point x="466" y="21.56" type="curve"/>
      <point x="340.9" y="21.56"/>
      <point x="466" y="21.56"/>
      <point x="340.9" y="21.56" type="curve"/>
    </contour>
    <contour>
      <point x="508" y="722"/>
      <point x="508" y="700"/>
      <point x="508" y="722" type="curve"/>
      <point x="359" y="722"/>
      <point x="140.465178" y="722"/>
      <point x="-8.4" y="722" type="curve"/>
      <point x="-8.4" y="700.44"/>
      <point x="-8.4" y="722"/>
      <point x="-8.4" y="700.44" type="curve"/>
      <point x="140.465178" y="700.44"/>
      <point x="359" y="700"/>
      <point x="508" y="700" type="curve"/>
    </contour>
    <contour>
      <point x="328.8" y="710"/>
      <point x="353" y="710"/>
      <point x="328.8" y="710" type="curve"/>
      <point x="328.8" y="473.3357"/>
      <point x="328.8" y="236.6643"/>
      <point x="328.8" y="1.45213821436e-15" type="curve"/>
      <point x="353" y="-2.90427642873e-15"/>
      <point x="328.8" y="1.45213821436e-15"/>
      <point x="353" y="-2.90427642873e-15" type="curve"/>
      <point x="353" y="236.6643"/>
      <point x="353" y="473.3357"/>
      <point x="353" y="710" type="curve"/>
    </contour>
    <contour>
      <point x="144.7" y="390.291555556"/>
      <point x="145.8" y="407.539555556"/>
      <point x="144.7" y="390.291555556" type="curve"/>
      <point x="185.658529573" y="390.291555556"/>
      <point x="203.0" y="345.525235105"/>
      <point x="203" y="296" type="curve"/>
      <point x="203.0" y="249.528948356"/>
      <point x="183.797586838" y="208.144444444"/>
      <point x="143.7" y="208.144444444" type="curve"/>
      <point x="102.853848944" y="208.144444444"/>
      <point x="87" y="251.310881333"/>
      <point x="87" y="297.182333333" type="curve"/>
      <point x="87" y="344.992704182"/>
      <point x="102.035652628" y="390.131111111"/>
      <point x="144.0" y="390.131111111" type="curve"/>
      <point x="210.566001" y="390.131111111"/>
      <point x="277.133999" y="390.131111111"/>
      <point x="343.7" y="390.131111111" type="curve"/>
      <point x="343.7" y="411.691111111"/>
      <point x="343.7" y="390.131111111"/>
      <point x="343.7" y="411.691111111" type="curve"/>
      <point x="277.500662" y="411.691111111"/>
      <point x="211.299338" y="411.691111111"/>
      <point x="145.1" y="411.691111111" type="curve"/>
      <point x="89.7990610351" y="411.691111111"/>
      <point x="62.8" y="357.675112016"/>
      <point x="62.8" y="296.104333333" type="curve"/>
      <point x="62.8" y="237.572153458"/>
      <point x="89.3916018333" y="186.584444444"/>
      <point x="142.6" y="186.584444444" type="curve"/>
      <point x="196.380445026" y="186.584444444"/>
      <point x="227.0" y="236.543401695"/>
      <point x="227" y="296" type="curve"/>
      <point x="227.0" y="355.533745587"/>
      <point x="198.148540768" y="407.539555556"/>
      <point x="145.8" y="407.539555556" type="curve"/>
    </contour>
  </outline>
</glyph>
<glyph name="dvPA" format="1">
  <advance width="477"/>
  <unicode hex="092A"/>
  <outline>
    <contour>
      <point x="341" y="0"/>
      <point x="341" y="22"/>
      <point x="341" y="0" type="curve"/>
      <point x="383" y="0"/>
      <point x="425" y="0"/>
      <point x="466" y="0" type="curve"/>
      <point x="466" y="22"/>
      <point x="466" y="0"/>
      <point x="466" y="22" type="curve"/>
      <point x="341" y="22"/>
      <point x="466" y="22"/>
      <point x="341" y="22" type="curve"/>
    </contour>
    <contour>
      <point x="341" y="22"/>
      <point x="341" y="0"/>
      <point x="341" y="22" type="curve"/>
      <point x="209" y="22"/>
      <point x="341" y="22"/>
      <point x="209" y="22" type="curve"/>
      <point x="209" y="0"/>
      <point x="209" y="22"/>
      <point x="209" y="0" type="curve"/>
      <point x="253" y="0"/>
      <point x="297" y="0"/>
      <point x="341" y="0" type="curve"/>
    </contour>
    <contour>
      <point x="335" y="369"/>
      <point x="352" y="361"/>
      <point x="335" y="369" type="curve"/>
      <point x="315" y="304"/>
      <point x="278" y="260"/>
      <point x="217" y="260" type="curve"/>
      <point x="141" y="260"/>
      <point x="119" y="334"/>
      <point x="119" y="424" type="curve"/>
      <point x="119" y="519"/>
      <point x="119" y="614"/>
      <point x="119" y="709" type="curve"/>
      <point x="95" y="709"/>
      <point x="119" y="709"/>
      <point x="95" y="709" type="curve"/>
      <point x="95" y="615"/>
      <point x="95" y="521"/>
      <point x="95" y="427" type="curve"/>
      <point x="95" y="322"/>
      <point x="125" y="237"/>
      <point x="216" y="237" type="curve"/>
      <point x="289" y="237"/>
      <point x="331" y="286"/>
      <point x="352" y="361" type="curve"/>
    </contour>
    <contour>
      <point x="-1" y="700"/>
      <point x="-1" y="722"/>
      <point x="-1" y="700" type="curve"/>
      <point x="138" y="700"/>
      <point x="343" y="700"/>
      <point x="482" y="700" type="curve"/>
      <point x="482" y="722"/>
      <point x="482" y="700"/>
      <point x="482" y="722" type="curve"/>
      <point x="343" y="722"/>
      <point x="138" y="722"/>
      <point x="-1" y="722" type="curve"/>
    </contour>
    <contour>
      <point x="329" y="709"/>
      <point x="353" y="709"/>
      <point x="329" y="709" type="curve"/>
      <point x="329" y="473"/>
      <point x="329" y="237"/>
      <point x="329" y="1" type="curve"/>
      <point x="353" y="1"/>
      <point x="329" y="1"/>
      <point x="353" y="1" type="curve"/>
      <point x="353" y="237"/>
      <point x="353" y="473"/>
      <point x="353" y="709" type="curve"/>
    </contour>
  </outline>
</glyph>
<glyph name="dvPHA" format="1">
  <advance width="618.0"/>
  <unicode hex="092B"/>
  <outline>
    <contour>
      <point x="315" y="22"/>
      <point x="315" y="0"/>
      <point x="315" y="22" type="curve"/>
      <point x="183" y="22"/>
      <point x="315" y="22"/>
      <point x="183" y="22" type="curve"/>
      <point x="183" y="0"/>
      <point x="183" y="22"/>
      <point x="183" y="0" type="curve"/>
      <point x="227" y="0"/>
      <point x="271" y="0"/>
      <point x="315" y="0" type="curve"/>
    </contour>
    <contour>
      <point x="315" y="0"/>
      <point x="315" y="22"/>
      <point x="315" y="0" type="curve"/>
      <point x="357" y="0"/>
      <point x="399" y="0"/>
      <point x="441" y="0" type="curve"/>
      <point x="441" y="22"/>
      <point x="441" y="0"/>
      <point x="441" y="22" type="curve"/>
      <point x="315" y="22"/>
      <point x="441" y="22"/>
      <point x="315" y="22" type="curve"/>
    </contour>
    <contour>
      <point x="631" y="722"/>
      <point x="631" y="700"/>
      <point x="631" y="722" type="curve"/>
      <point x="420" y="722"/>
      <point x="209" y="722"/>
      <point x="-2" y="722" type="curve"/>
      <point x="-2" y="700"/>
      <point x="-2" y="722"/>
      <point x="-2" y="700" type="curve"/>
      <point x="209" y="700"/>
      <point x="420" y="700"/>
      <point x="631" y="700" type="curve"/>
    </contour>
    <contour>
      <point x="61" y="709"/>
      <point x="85" y="709"/>
      <point x="61" y="709" type="curve"/>
      <point x="61" y="615"/>
      <point x="61" y="521"/>
      <point x="61" y="427" type="curve"/>
      <point x="61" y="315"/>
      <point x="91" y="223"/>
      <point x="187" y="223" type="curve"/>
      <point x="259" y="223"/>
      <point x="304" y="274"/>
      <point x="325" y="347" type="curve"/>
      <point x="312" y="359"/>
      <point x="325" y="347"/>
      <point x="312" y="359" type="curve"/>
      <point x="292" y="296"/>
      <point x="255" y="248"/>
      <point x="191" y="248" type="curve"/>
      <point x="108" y="248"/>
      <point x="85" y="327"/>
      <point x="85" y="424" type="curve"/>
      <point x="85" y="519"/>
      <point x="85" y="614"/>
      <point x="85" y="709" type="curve"/>
    </contour>
    <contour>
      <point x="303" y="710"/>
      <point x="327" y="710"/>
      <point x="303" y="710" type="curve"/>
      <point x="303" y="473"/>
      <point x="303" y="237"/>
      <point x="303" y="0" type="curve"/>
      <point x="327" y="0"/>
      <point x="303" y="0"/>
      <point x="327" y="0" type="curve"/>
      <point x="327" y="237"/>
      <point x="327" y="473"/>
      <point x="327" y="710" type="curve"/>
    </contour>
    <contour>
      <point x="325" y="325"/>
      <point x="306" y="325"/>
      <point x="325" y="325" type="curve"/>
      <point x="339" y="399"/>
      <point x="379" y="462"/>
      <point x="450" y="462" type="curve"/>
      <point x="521" y="462"/>
      <point x="557" y="394"/>
      <point x="557" y="315" type="curve"/>
      <point x="557" y="235"/>
      <point x="531" y="160"/>
      <point x="460" y="160" type="curve"/>
      <point x="447" y="160"/>
      <point x="436" y="162"/>
      <point x="424" y="166" type="curve"/>
      <point x="417" y="145"/>
      <point x="424" y="166"/>
      <point x="417" y="145" type="curve"/>
      <point x="432" y="141"/>
      <point x="445" y="139"/>
      <point x="460" y="139" type="curve"/>
      <point x="543" y="139"/>
      <point x="582" y="222"/>
      <point x="582" y="315" type="curve"/>
      <point x="582" y="406"/>
      <point x="534" y="484"/>
      <point x="450" y="484" type="curve"/>
      <point x="367" y="484"/>
      <point x="321" y="412"/>
      <point x="306" y="325" type="curve"/>
    </contour>
  </outline>
</glyph>
<glyph name="dvSHA" format="1">
  <advance width="765"/>
  <unicode hex="0936"/>
  <outline>
    <contour>
      <point x="254.2" y="4.51755555556"/>
      <point x="234.4" y="-14.8864444444"/>
      <point x="254.2" y="4.51755555556" type="curve"/>
      <point x="181.702712531" y="104.819220911"/>
      <point x="109.397287469" y="205.264001311"/>
      <point x="36.9" y="305.565666667" type="curve"/>
      <point x="14.9" y="293.707666667"/>
      <point x="36.9" y="305.565666667"/>
      <point x="14.9" y="293.707666667" type="curve"/>
      <point x="87.998696777" y="190.796182257"/>
      <point x="161.301303223" y="88.0250399654"/>
      <point x="234.4" y="-14.8864444444" type="curve"/>
    </contour>
    <contour>
      <point x="432.4" y="722"/>
      <point x="456.6" y="722"/>
      <point x="432.4" y="722" type="curve"/>
      <point x="432.4" y="481.33574"/>
      <point x="432.4" y="240.66426"/>
      <point x="432.4" y="1.45213821436e-15" type="curve"/>
      <point x="456.6" y="-2.90427642873e-15"/>
      <point x="432.4" y="1.45213821436e-15"/>
      <point x="456.6" y="-2.90427642873e-15" type="curve"/>
      <point x="456.6" y="240.66426"/>
      <point x="456.6" y="481.33574"/>
      <point x="456.6" y="722" type="curve"/>
    </contour>
    <contour>
      <point x="543.9" y="722"/>
      <point x="543.9" y="700.44"/>
      <point x="543.9" y="722" type="curve"/>
      <point x="508.200357" y="722"/>
      <point x="472.499643" y="722"/>
      <point x="436.8" y="722" type="curve"/>
      <point x="436.8" y="700.44"/>
      <point x="436.8" y="722"/>
      <point x="436.8" y="700.44" type="curve"/>
      <point x="472.499643" y="700.44"/>
      <point x="508.200357" y="700.44"/>
      <point x="543.9" y="700.44" type="curve"/>
    </contour>
    <contour>
      <point x="104.9" y="495.344"/>
      <point x="86.2" y="478.096"/>
      <point x="104.9" y="495.344" type="curve"/>
      <point x="84.8442642007" y="521.726776792"/>
      <point x="80.7" y="548.807182793"/>
      <point x="80.7" y="581.549" type="curve"/>
      <point x="81.349590536" y="650.404867848"/>
      <point x="115.12344114" y="705.44"/>
      <point x="179.0" y="705.44" type="curve"/>
      <point x="263.47268466" y="705.44"/>
      <point x="283.3" y="616.671315432"/>
      <point x="283.3" y="518.568666667" type="curve"/>
      <point x="283.3" y="366.66612508"/>
      <point x="228.543436336" y="235.084444444"/>
      <point x="92.4" y="235.084444444" type="curve"/>
      <point x="56.504171668" y="235.229853944"/>
      <point x="38.3926466326" y="267.577075408"/>
      <point x="36.9" y="305.565666667" type="curve"/>
      <point x="14.9" y="293.707666667"/>
      <point x="36.9" y="305.565666667"/>
      <point x="14.9" y="293.707666667" type="curve"/>
      <point x="14.612410709" y="246.957248425"/>
      <point x="45.6872693716" y="214.519133238"/>
      <point x="92.4" y="213.524444444" type="curve"/>
      <point x="242.22789599" y="213.524444444"/>
      <point x="307.5" y="353.980669973"/>
      <point x="307.5" y="520.724666667" type="curve"/>
      <point x="307.5" y="631.498830594"/>
      <point x="277.162849825" y="727"/>
      <point x="180.1" y="727" type="curve"/>
      <point x="101.392247482" y="727"/>
      <point x="57.1227084047" y="664.21107932"/>
      <point x="56.5" y="580.471" type="curve"/>
      <point x="56.5" y="541.378466789"/>
      <point x="62.6555987855" y="509.424807241"/>
      <point x="86.2" y="478.096" type="curve"/>
    </contour>
    <contour>
      <point x="447.3" y="0"/>
      <point x="447.3" y="21.56"/>
      <point x="447.3" y="0" type="curve"/>
      <point x="488.999583" y="0"/>
      <point x="530.700417" y="0"/>
      <point x="572.4" y="0" type="curve"/>
      <point x="572.4" y="21.56"/>
      <point x="572.4" y="0"/>
      <point x="572.4" y="21.56" type="curve"/>
      <point x="447.3" y="21.56"/>
      <point x="572.4" y="21.56"/>
      <point x="447.3" y="21.56" type="curve"/>
    </contour>
    <contour>
      <point x="447.3" y="21.56"/>
      <point x="447.3" y="0"/>
      <point x="447.3" y="21.56" type="curve"/>
      <point x="315.2" y="21.56"/>
      <point x="447.3" y="21.56"/>
      <point x="315.2" y="21.56" type="curve"/>
      <point x="315.2" y="0"/>
      <point x="315.2" y="21.56"/>
      <point x="315.2" y="0" type="curve"/>
      <point x="359.232893" y="-5.3922960545e-15"/>
      <point x="403.267107" y="5.3922960545e-15"/>
      <point x="447.3" y="0" type="curve"/>
    </contour>
  </outline>
</glyph>
<glyph name="dvSSA" format="1">
  <advance width="571"/>
  <unicode hex="0937"/>
  <outline>
    <contour>
      <point x="-8.4" y="700.44"/>
      <point x="-8.4" y="722"/>
      <point x="-8.4" y="700.44" type="curve"/>
      <point x="130.665276" y="700.44"/>
      <point x="269.734724" y="700.44"/>
      <point x="408.8" y="700.44" type="curve"/>
      <point x="408.8" y="722"/>
      <point x="408.8" y="700.44"/>
      <point x="408.8" y="722" type="curve"/>
      <point x="269.734724" y="722"/>
      <point x="130.665276" y="722"/>
      <point x="-8.4" y="722" type="curve"/>
    </contour>
    <contour>
      <point x="304.5" y="21.56"/>
      <point x="304.5" y="0"/>
      <point x="304.5" y="21.56" type="curve"/>
      <point x="172.4" y="21.56"/>
      <point x="304.5" y="21.56"/>
      <point x="172.4" y="21.56" type="curve"/>
      <point x="172.4" y="0"/>
      <point x="172.4" y="21.56"/>
      <point x="172.4" y="0" type="curve"/>
      <point x="216.432893" y="-5.3922960545e-15"/>
      <point x="260.467107" y="5.3922960545e-15"/>
      <point x="304.5" y="0" type="curve"/>
    </contour>
    <contour>
      <point x="304.5" y="0"/>
      <point x="304.5" y="21.56"/>
      <point x="304.5" y="0" type="curve"/>
      <point x="346.199583" y="0"/>
      <point x="387.900417" y="0"/>
      <point x="429.6" y="0" type="curve"/>
      <point x="429.6" y="21.56"/>
      <point x="429.6" y="0"/>
      <point x="429.6" y="21.56" type="curve"/>
      <point x="304.5" y="21.56"/>
      <point x="429.6" y="21.56"/>
      <point x="304.5" y="21.56" type="curve"/>
    </contour>
    <contour>
      <point x="54.4" y="699.723"/>
      <point x="70.9" y="713.737"/>
      <point x="54.4" y="699.723" type="curve"/>
      <point x="134.92601607" y="578.926409625"/>
      <point x="215.57398393" y="458.205923708"/>
      <point x="296.1" y="337.409333333" type="curve"/>
      <point x="311.5" y="354.657333333"/>
      <point x="296.1" y="337.409333333"/>
      <point x="311.5" y="354.657333333" type="curve"/>
      <point x="231.261319135" y="474.322898558"/>
      <point x="151.138680865" y="594.071434776"/>
      <point x="70.9" y="713.737" type="curve"/>
    </contour>
    <contour>
      <point x="297.3" y="369.303111111"/>
      <point x="313.8" y="360.679111111"/>
      <point x="297.3" y="369.303111111" type="curve"/>
      <point x="276.846948009" y="303.999936579"/>
      <point x="242.174405734" y="260.028888889"/>
      <point x="176.6" y="260.028888889" type="curve"/>
      <point x="96.9429113304" y="260.028888889"/>
      <point x="73.7" y="334.423784133"/>
      <point x="73.7" y="423.739666667" type="curve"/>
      <point x="73.7" y="518.900307643"/>
      <point x="73.7" y="614.063803468"/>
      <point x="73.7" y="709.224444444" type="curve"/>
      <point x="49.5" y="709.224444444"/>
      <point x="73.7" y="709.224444444"/>
      <point x="49.5" y="709.224444444" type="curve"/>
      <point x="49.5" y="615.141792688"/>
      <point x="49.5" y="521.056318423"/>
      <point x="49.5" y="426.973666667" type="curve"/>
      <point x="49.5" y="322.658236509"/>
      <point x="82.9064280262" y="238.468888889"/>
      <point x="175.5" y="238.468888889" type="curve"/>
      <point x="249.917563825" y="238.468888889"/>
      <point x="292.613459248" y="286.531670328"/>
      <point x="313.8" y="360.679111111" type="curve"/>
    </contour>
    <contour>
      <point x="315.2" y="0"/>
      <point x="291.0" y="1.45213821436e-15"/>
      <point x="315.2" y="0" type="curve"/>
      <point x="315.2" y="236.6643"/>
      <point x="315.2" y="473.3357"/>
      <point x="315.2" y="710" type="curve"/>
      <point x="291.0" y="710"/>
      <point x="315.2" y="710"/>
      <point x="291.0" y="710" type="curve"/>
      <point x="291.0" y="473.3357"/>
      <point x="291.0" y="236.6643"/>
      <point x="291.0" y="1.45213821436e-15" type="curve"/>
    </contour>
  </outline>
</glyph>
<glyph name="dvHA" format="1">
  <advance width="384"/>
  <unicode hex="0939"/>
  <outline>
    <contour>
      <point x="309.1" y="75.1141111111"/>
      <point x="291.5" y="89.1281111111"/>
      <point x="309.1" y="75.1141111111" type="curve"/>
      <point x="335.93586602" y="114.495099674"/>
      <point x="346" y="145.914022056"/>
      <point x="346" y="193.413444444" type="curve"/>
      <point x="346" y="282.657321104"/>
      <point x="294.278982017" y="348.831111111"/>
      <point x="208.6" y="348.831111111" type="curve"/>
      <point x="102.526341376" y="348.831111111"/>
      <point x="50.2" y="255.608737549"/>
      <point x="50.2" y="139.493333333" type="curve"/>
      <point x="50.2" y="11.5652421442"/>
      <point x="116.117877054" y="-88.7621111111"/>
      <point x="236.2" y="-88.7621111111" type="curve"/>
      <point x="238.4" y="-68.2801111111"/>
      <point x="236.2" y="-88.7621111111"/>
      <point x="238.4" y="-68.2801111111" type="curve"/>
      <point x="130.352591692" y="-68.2801111111"/>
      <point x="74.4" y="23.4873831247"/>
      <point x="74.4" y="139.493333333" type="curve"/>
      <point x="74.4" y="241.867494543"/>
      <point x="116.132856516" y="327.271111111"/>
      <point x="208.6" y="327.271111111" type="curve"/>
      <point x="280.43442338" y="327.271111111"/>
      <point x="321.8" y="268.733277331"/>
      <point x="321.8" y="192.335444444" type="curve"/>
      <point x="321.8" y="152.124449603"/>
      <point x="314.287590186" y="121.576730204"/>
      <point x="291.5" y="89.1281111111" type="curve"/>
    </contour>
    <contour>
      <point x="393.4" y="722"/>
      <point x="393.4" y="700.44"/>
      <point x="393.4" y="722" type="curve"/>
      <point x="259.468006" y="722"/>
      <point x="125.531994" y="722"/>
      <point x="-8.4" y="722" type="curve"/>
      <point x="-8.4" y="700.44"/>
      <point x="-8.4" y="722"/>
      <point x="-8.4" y="700.44" type="curve"/>
      <point x="125.531994" y="700.44"/>
      <point x="259.468006" y="700.44"/>
      <point x="393.4" y="700.44" type="curve"/>
    </contour>
    <contour>
      <point x="141.1" y="318.657111111"/>
      <point x="123.5" y="303.565111111"/>
      <point x="141.1" y="318.657111111" type="curve"/>
      <point x="102.979348708" y="353.638549544"/>
      <point x="72.3" y="385.912896338"/>
      <point x="72.3" y="436.831111111" type="curve"/>
      <point x="72.3" y="485.274256575"/>
      <point x="103.698361392" y="519.842222222"/>
      <point x="151.8" y="519.842222222" type="curve"/>
      <point x="197.399544" y="519.842222222"/>
      <point x="243.000456" y="519.842222222"/>
      <point x="288.6" y="519.842222222" type="curve"/>
      <point x="264.4" y="541.402222222"/>
      <point x="288.6" y="519.842222222"/>
      <point x="264.4" y="541.402222222" type="curve"/>
      <point x="225.767053" y="541.402222222"/>
      <point x="187.132947" y="541.402222222"/>
      <point x="148.5" y="541.402222222" type="curve"/>
      <point x="87.3082777314" y="541.402222222"/>
      <point x="48.1" y="498.530562012"/>
      <point x="48.1" y="436.831111111" type="curve"/>
      <point x="48.1" y="376.594668152"/>
      <point x="77.0483313852" y="342.394074248"/>
      <point x="123.5" y="303.565111111" type="curve"/>
    </contour>
    <contour>
      <point x="264.4" y="710.222222222"/>
      <point x="288.6" y="710.222222222"/>
      <point x="264.4" y="710.222222222" type="curve"/>
      <point x="264.4" y="653.949451622"/>
      <point x="264.4" y="597.674992822"/>
      <point x="264.4" y="541.402222222" type="curve"/>
      <point x="288.6" y="519.842222222"/>
      <point x="264.4" y="541.402222222"/>
      <point x="288.6" y="519.842222222" type="curve"/>
      <point x="288.6" y="583.301587622"/>
      <point x="288.6" y="646.762856822"/>
      <point x="288.6" y="710.222222222" type="curve"/>
    </contour>
  </outline>
</glyph>
<glyph name="dvNukta" format="1">
  <advance width="0"/>
  <unicode hex="093C"/>
  <outline>
    <contour>
      <point x="-196.665" y="-87.0022222222"/>
      <point x="-228.235" y="-87.0022222222"/>
      <point x="-196.665" y="-87.0022222222" type="curve"/>
      <point x="-196.665" y="-77.8784888712"/>
      <point x="-202.90597553" y="-71.9102222222"/>
      <point x="-212.1" y="-71.9102222222" type="curve"/>
      <point x="-222.034693187" y="-71.9102222222"/>
      <point x="-228.235" y="-78.6471000502"/>
      <point x="-228.235" y="-87.0022222222" type="curve"/>
      <point x="-196.665" y="-87.0022222222"/>
      <point x="-228.235" y="-87.0022222222"/>
      <point x="-196.665" y="-87.0022222222" type="curve"/>
      <point x="-196.665" y="-96.8862666858"/>
      <point x="-202.90597553" y="-102.094222222"/>
      <point x="-212.1" y="-102.094222222" type="curve"/>
      <point x="-222.034693187" y="-102.094222222"/>
      <point x="-228.235" y="-96.1169009553"/>
      <point x="-228.235" y="-87.0022222222" type="curve"/>
    </contour>
  </outline>
</glyph>
<glyph name="dvvRR" format="1">
  <advance width="686"/>
  <unicode hex="0960"/>
  <outline>
    <contour>
      <point x="127" y="169"/>
      <point x="115" y="188"/>
      <point x="127" y="169" type="curve"/>
      <point x="200" y="237"/>
      <point x="273" y="305"/>
      <point x="346" y="373" type="curve"/>
      <point x="333" y="390"/>
      <point x="346" y="373"/>
      <point x="333" y="390" type="curve"/>
      <point x="260" y="322"/>
      <point x="188" y="255"/>
      <point x="115" y="188" type="curve"/>
    </contour>
    <contour>
      <point x="695" y="722"/>
      <point x="695" y="700"/>
      <point x="695" y="722" type="curve"/>
      <point x="463" y="722"/>
      <point x="230" y="722"/>
      <point x="-2" y="722" type="curve"/>
      <point x="-2" y="700"/>
      <point x="-2" y="722"/>
      <point x="-2" y="700" type="curve"/>
      <point x="230" y="700"/>
      <point x="463" y="700"/>
      <point x="695" y="700" type="curve"/>
    </contour>
    <contour>
      <point x="330" y="366"/>
      <point x="336" y="388"/>
      <point x="330" y="366" type="curve"/>
      <point x="359" y="351"/>
      <point x="379" y="341"/>
      <point x="411" y="341" type="curve"/>
      <point x="487" y="341"/>
      <point x="512" y="408"/>
      <point x="512" y="489" type="curve"/>
      <point x="512" y="527"/>
      <point x="497" y="556"/>
      <point x="463" y="555" type="curve"/>
      <point x="447" y="540"/>
      <point x="463" y="555"/>
      <point x="447" y="540" type="curve"/>
      <point x="473" y="528"/>
      <point x="490" y="499"/>
      <point x="490" y="484" type="curve"/>
      <point x="490" y="420"/>
      <point x="470" y="363"/>
      <point x="413" y="363" type="curve"/>
      <point x="382" y="363"/>
      <point x="363" y="373"/>
      <point x="336" y="388" type="curve"/>
    </contour>
    <contour>
      <point x="80" y="466"/>
      <point x="66" y="482"/>
      <point x="80" y="466" type="curve"/>
      <point x="109" y="496"/>
      <point x="130" y="523"/>
      <point x="171" y="523" type="curve"/>
      <point x="257" y="523"/>
      <point x="298" y="411"/>
      <point x="336" y="361" type="curve"/>
      <point x="346" y="382"/>
      <point x="336" y="361"/>
      <point x="346" y="382" type="curve"/>
      <point x="310" y="433"/>
      <point x="266" y="544"/>
      <point x="173" y="544" type="curve"/>
      <point x="125" y="544"/>
      <point x="98" y="519"/>
      <point x="66" y="482" type="curve"/>
    </contour>
    <contour>
      <point x="327" y="711"/>
      <point x="351" y="711"/>
      <point x="327" y="711" type="curve"/>
      <point x="327" y="474"/>
      <point x="327" y="237"/>
      <point x="327" y="0" type="curve"/>
      <point x="351" y="0"/>
      <point x="327" y="0"/>
      <point x="351" y="0" type="curve"/>
      <point x="351" y="237"/>
      <point x="351" y="474"/>
      <point x="351" y="711" type="curve"/>
    </contour>
    <contour>
      <point x="661" y="121"/>
      <point x="676" y="106"/>
      <point x="661" y="121" type="curve"/>
      <point x="636" y="91"/>
      <point x="621" y="63"/>
      <point x="584" y="63" type="curve"/>
      <point x="532" y="63"/>
      <point x="510" y="111"/>
      <point x="511" y="175" type="curve"/>
      <point x="513" y="231"/>
      <point x="545" y="283"/>
      <point x="588" y="296" type="curve"/>
      <point x="596.0" y="319.0"/>
      <point x="588.0" y="296.0"/>
      <point x="596" y="319" type="curve"/>
      <point x="530.0" y="300.0"/>
      <point x="489.0" y="242.0"/>
      <point x="490" y="174" type="curve"/>
      <point x="490" y="98"/>
      <point x="522" y="42"/>
      <point x="583" y="42" type="curve"/>
      <point x="625" y="42"/>
      <point x="650" y="71"/>
      <point x="676" y="106" type="curve"/>
    </contour>
    <contour>
      <point x="447" y="540"/>
      <point x="463" y="555"/>
      <point x="447" y="540" type="curve"/>
      <point x="495" y="459"/>
      <point x="540" y="378"/>
      <point x="588" y="296" type="curve"/>
      <point x="596.0" y="319.0"/>
      <point x="588.0" y="296.0"/>
      <point x="596" y="319" type="curve"/>
      <point x="550.0" y="397.0"/>
      <point x="508.0" y="477.0"/>
      <point x="463" y="555" type="curve"/>
    </contour>
  </outline>
</glyph>
<glyph name="danda" format="1">
  <advance width="307"/>
  <unicode hex="0964"/>
  <outline>
    <contour>
      <point x="139.8" y="722"/>
      <point x="164.0" y="722"/>
      <point x="139.8" y="722" type="curve"/>
      <point x="139.8" y="481.33574"/>
      <point x="139.8" y="240.66426"/>
      <point x="139.8" y="1.45213821436e-15" type="curve"/>
      <point x="164.0" y="-2.90427642873e-15"/>
      <point x="139.8" y="1.45213821436e-15"/>
      <point x="164.0" y="-2.90427642873e-15" type="curve"/>
      <point x="164.0" y="240.66426"/>
      <point x="164" y="481.33574"/>
      <point x="164.0" y="722" type="curve"/>
    </contour>
  </outline>
</glyph>
<glyph name="dvTwo" format="1">
  <advance width="418"/>
  <unicode hex="0968"/>
  <outline>
    <contour>
      <point x="53.3" y="289.716555556"/>
      <point x="72" y="301.574555556"/>
      <point x="53.3" y="289.716555556" type="curve"/>
      <point x="124.866540755" y="170.969201116"/>
      <point x="196.233459245" y="52.0967988838"/>
      <point x="267.8" y="-66.6505555556" type="curve"/>
      <point x="288.7" y="-50.4805555556"/>
      <point x="267.8" y="-66.6505555556"/>
      <point x="288.7" y="-50.4805555556" type="curve"/>
      <point x="216.535536346" y="66.911907634"/>
      <point x="144.164463654" y="184.182092366"/>
      <point x="72" y="301.574555556" type="curve"/>
    </contour>
    <contour>
      <point x="79" y="651.749444444"/>
      <point x="68" y="667.919444444"/>
      <point x="79" y="651.749444444" type="curve"/>
      <point x="109.821774082" y="683.80036932"/>
      <point x="139.844295188" y="706.437777778"/>
      <point x="184.6" y="706.437777778" type="curve"/>
      <point x="288.913057643" y="707.246406132"/>
      <point x="334.365331706" y="610.65020137"/>
      <point x="335.8" y="494.662111111" type="curve"/>
      <point x="337.748819179" y="350.029556397"/>
      <point x="278.02263827" y="230.106734576"/>
      <point x="149.1" y="235.084444444" type="curve"/>
      <point x="105.639073766" y="235.084444444"/>
      <point x="72" y="260.308173428"/>
      <point x="72" y="301.574555556" type="curve"/>
      <point x="53.3" y="289.716555556"/>
      <point x="72" y="301.574555556"/>
      <point x="53.3" y="289.716555556" type="curve"/>
      <point x="53.3" y="240.256714425"/>
      <point x="95.9460534857" y="213.524444444"/>
      <point x="149.1" y="213.524444444" type="curve"/>
      <point x="290.822396425" y="205.847962365"/>
      <point x="361.907948063" y="336.047743101"/>
      <point x="360" y="495.740111111" type="curve"/>
      <point x="359.505827672" y="623.498956071"/>
      <point x="302.557083994" y="727.169004132"/>
      <point x="185.7" y="727.997777778" type="curve"/>
      <point x="136.318804656" y="727.997777778"/>
      <point x="101.760851423" y="703.759898341"/>
      <point x="68" y="667.919444444" type="curve"/>
    </contour>
  </outline>
</glyph>
<glyph name="fourdeva" format="1">
  <advance width="461"/>
  <unicode hex="096A"/>
  <outline>
    <contour>
      <point x="111.7" y="712.654"/>
      <point x="94.1" y="727.746"/>
      <point x="111.7" y="712.654" type="curve"/>
      <point x="81.1498761349" y="673.468017706"/>
      <point x="69.1" y="638.526535585"/>
      <point x="69.1" y="588.533444444" type="curve"/>
      <point x="69.1" y="472.47408039"/>
      <point x="128.360454058" y="396.978359043"/>
      <point x="237.9" y="356.652888889" type="curve"/>
      <point x="324.11547366" y="325.422127893"/>
      <point x="364.959140642" y="262.496098252"/>
      <point x="365.7" y="170.504666667" type="curve"/>
      <point x="365.7" y="67.2543890955"/>
      <point x="321.322722676" y="-10.0178888889"/>
      <point x="226" y="-10.0178888889" type="curve"/>
      <point x="134.188097206" y="-10.0178888889"/>
      <point x="92.4868381639" y="65.832589984"/>
      <point x="92.2" y="165.315222222" type="curve"/>
      <point x="92.2" y="260.708436153"/>
      <point x="137.577979836" y="324.740853227"/>
      <point x="226.9" y="356.652888889" type="curve"/>
      <point x="333.433182631" y="395.704804036"/>
      <point x="386.4" y="471.880531046"/>
      <point x="386.4" y="585.459888889" type="curve"/>
      <point x="386.4" y="637.112958655"/>
      <point x="376.532317529" y="674.778185579"/>
      <point x="342.3" y="713.571555556" type="curve"/>
      <point x="357.7" y="730.819555556"/>
      <point x="342.3" y="713.571555556"/>
      <point x="357.7" y="730.819555556" type="curve"/>
      <point x="397.484081596" y="687.693684798"/>
      <point x="409.5" y="645.466760959"/>
      <point x="409.5" y="586.537888889" type="curve"/>
      <point x="409.5" y="463.073684506"/>
      <point x="353.985449629" y="378.219011485"/>
      <point x="237.9" y="339.404888889" type="curve"/>
      <point x="156.464393229" y="312.996924972"/>
      <point x="116.4" y="254.248008871"/>
      <point x="116.4" y="168.549222222" type="curve"/>
      <point x="114.860227069" y="80.681863991"/>
      <point x="150.635501973" y="12.6201111111"/>
      <point x="230.4" y="12.6201111111" type="curve"/>
      <point x="309.905881177" y="12.6201111111"/>
      <point x="344.8" y="80.1780108505"/>
      <point x="344.8" y="168.348666667" type="curve"/>
      <point x="344.924185132" y="252.821016586"/>
      <point x="306.506765033" y="310.96677773"/>
      <point x="226.9" y="339.404888889" type="curve"/>
      <point x="109.839667015" y="381.805808508"/>
      <point x="47.1" y="463.611574657"/>
      <point x="47.1" y="587.455444444" type="curve"/>
      <point x="47.1" y="643.904991369"/>
      <point x="59.9767876432" y="683.522656791"/>
      <point x="94.1" y="727.746" type="curve"/>
    </contour>
  </outline>
</glyph>
<glyph name="dvFive" format="1">
  <advance width="430"/>
  <unicode hex="096B"/>
  <outline>
    <contour>
      <point x="281.3" y="58.8688888889"/>
      <point x="278" y="80.4288888889"/>
      <point x="281.3" y="58.8688888889" type="curve"/>
      <point x="363.134174531" y="66.9746819003"/>
      <point x="401.3" y="138.239946126"/>
      <point x="401.3" y="226.340111111" type="curve"/>
      <point x="401.3" y="347.788622472"/>
      <point x="345.702742657" y="430.86692358"/>
      <point x="296.3" y="541.121444444" type="curve"/>
      <point x="279.8" y="527.107444444"/>
      <point x="296.3" y="541.121444444"/>
      <point x="279.8" y="527.107444444" type="curve"/>
      <point x="326.866230917" y="422.443350065"/>
      <point x="377.1" y="340.475336871"/>
      <point x="377.1" y="225.262111111" type="curve"/>
      <point x="377.1" y="149.852548347"/>
      <point x="347.875326953" y="86.3706757294"/>
      <point x="278" y="80.4288888889" type="curve"/>
    </contour>
    <contour>
      <point x="98.3" y="753.648111111"/>
      <point x="115.9" y="739.634111111"/>
      <point x="98.3" y="753.648111111" type="curve"/>
      <point x="49.5888758745" y="684.215429421"/>
      <point x="35.5" y="617.23562773"/>
      <point x="35.5" y="532.577666667" type="curve"/>
      <point x="35.5" y="399.90703147"/>
      <point x="67.028244297" y="281.373333333"/>
      <point x="181.8" y="281.373333333" type="curve"/>
      <point x="282.454965666" y="281.373333333"/>
      <point x="334.6" y="368.499696155"/>
      <point x="334.6" y="477.860333333" type="curve"/>
      <point x="334.6" y="510.8469936"/>
      <point x="325.800885649" y="539.325589345"/>
      <point x="296.3" y="541.121444444" type="curve"/>
      <point x="279.8" y="527.107444444"/>
      <point x="296.3" y="541.121444444"/>
      <point x="279.8" y="527.107444444" type="curve"/>
      <point x="301.871149187" y="518.226616305"/>
      <point x="311.5" y="499.170749575"/>
      <point x="311.5" y="474.626333333" type="curve"/>
      <point x="311.5" y="380.304201348"/>
      <point x="265" y="303"/>
      <point x="182.9" y="302.933333333" type="curve"/>
      <point x="86" y="303"/>
      <point x="59.7" y="413.769208696"/>
      <point x="59.7" y="533.655666667" type="curve"/>
      <point x="59.7" y="612.025584062"/>
      <point x="70.6097120844" y="675.077478495"/>
      <point x="115.9" y="739.634111111" type="curve"/>
    </contour>
  </outline>
</glyph>
<glyph name="dvEight" format="1">
  <advance width="408"/>
  <unicode hex="096E"/>
  <outline>
    <contour>
      <point x="365.6" y="89.2885555556"/>
      <point x="379.9" y="70.9625555556"/>
      <point x="365.6" y="89.2885555556" type="curve"/>
      <point x="324.574577152" y="44.485260723"/>
      <point x="287.02450215" y="7.59111111111"/>
      <point x="226.3" y="7.59111111111" type="curve"/>
      <point x="121.71638084" y="7.59111111111"/>
      <point x="74.4" y="103.314171612"/>
      <point x="74.4" y="218.357888889" type="curve"/>
      <point x="74.4" y="423.497973626"/>
      <point x="184.725086569" y="558.887329474"/>
      <point x="316.9" y="715.527" type="curve"/>
      <point x="302.6" y="733.853"/>
      <point x="316.9" y="715.527"/>
      <point x="302.6" y="733.853" type="curve"/>
      <point x="163.026055888" y="572.324441547"/>
      <point x="50.2" y="431.070810246"/>
      <point x="50.2" y="217.279888889" type="curve"/>
      <point x="50.2" y="89.5035544688"/>
      <point x="107.954802491" y="-13.9688888889"/>
      <point x="225.2" y="-13.9688888889" type="curve"/>
      <point x="291.358324397" y="-13.9688888889"/>
      <point x="336.22109622" y="20.8050193261"/>
      <point x="379.9" y="70.9625555556" type="curve"/>
    </contour>
  </outline>
</glyph>
